<svg width="16" height="16" viewBox="0 0 16 16" fill="none" xmlns="http://www.w3.org/2000/svg">
<path fill-rule="evenodd" clip-rule="evenodd" d="M0.110596 8C0.745366 5.16229 4.03599 3 7.99998 3C11.964 3 15.2546 5.16229 15.8894 8C15.2546 10.8377 11.964 13 7.99998 13C4.03599 13 0.745366 10.8377 0.110596 8ZM7.99998 4C4.61344 4 1.78859 5.71776 1.14001 8C1.78859 10.2822 4.61344 12 7.99998 12C11.3865 12 14.2114 10.2822 14.86 8C14.2114 5.71776 11.3865 4 7.99998 4Z" fill="white"/>
<path fill-rule="evenodd" clip-rule="evenodd" d="M8 11C9.65685 11 11 9.65685 11 8C11 6.34315 9.65685 5 8 5C6.34315 5 5 6.34315 5 8C5 9.65685 6.34315 11 8 11ZM8 10C9.10457 10 10 9.10457 10 8C10 6.89543 9.10457 6 8 6C6.89543 6 6 6.89543 6 8C6 9.10457 6.89543 10 8 10Z" fill="white"/>
</svg>
