<svg width="16" height="16" viewBox="0 0 16 16" fill="none" xmlns="http://www.w3.org/2000/svg">
<path fill-rule="evenodd" clip-rule="evenodd" d="M5.29285 12.707C4.90232 12.3165 4.90232 11.6833 5.29285 11.2928L7.29285 9.29282C7.68337 8.90229 8.31654 8.90229 8.70706 9.29282L10.7071 11.2928C11.0976 11.6833 11.0976 12.3165 10.7071 12.707L8.70706 14.707C8.31654 15.0976 7.68337 15.0976 7.29285 14.707L5.29285 12.707ZM7.99996 13.9999L5.99995 11.9999L7.99995 9.99993L9.99996 11.9999L7.99996 13.9999Z" fill="#D9D9D9"/>
<path fill-rule="evenodd" clip-rule="evenodd" d="M1.29292 8.70711C0.902398 8.31658 0.902398 7.68342 1.29292 7.29289L3.29292 5.29289C3.68345 4.90237 4.31661 4.90237 4.70714 5.29289L6.70714 7.29289C7.09766 7.68342 7.09766 8.31658 6.70714 8.70711L4.70714 10.7071C4.31661 11.0976 3.68345 11.0976 3.29292 10.7071L1.29292 8.70711ZM4.00003 10L2.00003 8L4.00003 6L6.00003 8L4.00003 10Z" fill="#D9D9D9"/>
<path fill-rule="evenodd" clip-rule="evenodd" d="M5.29289 4.70714C4.90237 4.31661 4.90237 3.68345 5.29289 3.29292L7.29289 1.29292C7.68342 0.902399 8.31658 0.902399 8.70711 1.29292L10.7071 3.29292C11.0976 3.68345 11.0976 4.31661 10.7071 4.70714L8.70711 6.70714C8.31658 7.09766 7.68342 7.09766 7.29289 6.70714L5.29289 4.70714ZM8 6.00003L6 4.00003L8 2.00003L10 4.00003L8 6.00003Z" fill="#D9D9D9"/>
<path fill-rule="evenodd" clip-rule="evenodd" d="M9.29292 8.70711C8.9024 8.31658 8.9024 7.68342 9.29292 7.29289L11.2929 5.29289C11.6834 4.90237 12.3166 4.90237 12.7071 5.29289L14.7071 7.29289C15.0977 7.68342 15.0977 8.31658 14.7071 8.70711L12.7071 10.7071C12.3166 11.0976 11.6834 11.0976 11.2929 10.7071L9.29292 8.70711ZM12 10L10 8L12 6L14 8L12 10Z" fill="#D9D9D9"/>
</svg>
