<svg width="16" height="16" viewBox="0 0 16 16" fill="none" xmlns="http://www.w3.org/2000/svg">
<path d="M4.6464 4.64645C4.45114 4.84171 4.45114 5.15829 4.6464 5.35355L7.29289 8L4.64645 10.6464C4.45118 10.8417 4.45118 11.1583 4.64645 11.3536C4.84171 11.5488 5.15829 11.5488 5.35355 11.3536L8 8.70711L10.6464 11.3536C10.8417 11.5488 11.1583 11.5488 11.3536 11.3536C11.5475 11.1596 11.5488 10.846 11.3575 10.6504L8.70706 8L11.3535 5.35355C11.5488 5.15829 11.5488 4.84171 11.3535 4.64645C11.1596 4.45254 10.8461 4.45119 10.6505 4.6424L8 7.29289L5.35351 4.64645C5.15825 4.45118 4.84166 4.45118 4.6464 4.64645Z" fill="white"/>
</svg>
