<svg width="16" height="16" viewBox="0 0 16 16" fill="none" xmlns="http://www.w3.org/2000/svg">
<path d="M14.86 8C14.2114 10.2822 11.3865 12 7.99998 12C7.19141 12 6.41486 11.9021 5.6923 11.7219L4.8858 12.5284C5.84297 12.8321 6.89533 13 7.99998 13C11.964 13 15.2546 10.8377 15.8894 8C15.5621 6.53688 14.5288 5.25331 13.0611 4.3531L12.3384 5.07583C13.6107 5.79446 14.5252 6.82204 14.86 8Z" fill="white"/>
<path d="M11 8C11 9.65686 9.65685 11 8 11C7.53686 11 7.09822 10.895 6.70659 10.7076L7.48196 9.93226C7.64719 9.97644 7.82084 10 8 10C9.10457 10 10 9.10457 10 8C10 7.82084 9.97644 7.64719 9.93226 7.48196L10.7076 6.70659C10.895 7.09822 11 7.53686 11 8Z" fill="white"/>
<path fill-rule="evenodd" clip-rule="evenodd" d="M0.110596 8C0.745366 5.16229 4.03599 3 7.99998 3C9.10464 3 10.157 3.16792 11.1142 3.47158L12.5962 1.98959C12.7914 1.79433 13.108 1.79433 13.3033 1.98959C13.4985 2.18486 13.4985 2.50144 13.3033 2.6967L12.1366 3.86334L11.3796 4.62032L10.1213 5.87866L9.41419 6.58577L6.58577 9.4142L5.87866 10.1213L4.62029 11.3797L3.86331 12.1366L2.69666 13.3033C2.5014 13.4986 2.18481 13.4986 1.98955 13.3033C1.79429 13.108 1.79429 12.7915 1.98955 12.5962L2.93885 11.6469C1.47121 10.7467 0.437884 9.46313 0.110596 8ZM7.99998 4C4.61344 4 1.78859 5.71776 1.14001 8C1.47477 9.17796 2.38929 10.2055 3.66158 10.9242L5.29236 9.29339C5.10495 8.90176 5 8.46314 5 8C5 6.34315 6.34315 5 8 5C8.46314 5 8.90176 5.10495 9.29339 5.29236L10.3077 4.27808C9.58511 4.09792 8.80856 4 7.99998 4ZM8 6C6.89543 6 6 6.89543 6 8C6 8.17915 6.02355 8.3528 6.06773 8.51801L8.51801 6.06774C8.35279 6.02356 8.17915 6 8 6Z" fill="white"/>
</svg>
