<svg xmlns="http://www.w3.org/2000/svg">
  <symbol id="arrow">
    <path d="M7.64645 10.3536C7.84171 10.5488 8.15829 10.5488 8.35355 10.3536L12.3536 6.35356C12.5488 6.15829 12.5488 5.84171 12.3536 5.64645C12.1583 5.45119 11.8417 5.45119 11.6464 5.64645L8 9.29289L4.35355 5.64645C4.15829 5.45119 3.84171 5.45119 3.64645 5.64645C3.45118 5.84171 3.45119 6.15829 3.64645 6.35355L7.64645 10.3536Z"/>
  </symbol>
  <symbol id="check">
    <path d="M7.35368 11.3537C7.15841 11.549 6.84183 11.549 6.64657 11.3537L2.64648 7.35316C2.45121 7.1579 2.45125 6.84132 2.64651 6.64606C2.84178 6.4508 3.15832 6.45079 3.35358 6.64605L7.00005 10.2931L12.6467 4.64643C12.8419 4.45117 13.1585 4.45117 13.3538 4.64643C13.5491 4.84169 13.5491 5.15827 13.3538 5.35354L7.35368 11.3537Z"/>
  </symbol>
  <symbol id="close">
    <path d="M4.6464 4.64645C4.45114 4.84171 4.45114 5.15829 4.6464 5.35355L7.29289 8L4.64645 10.6464C4.45118 10.8417 4.45118 11.1583 4.64645 11.3536C4.84171 11.5488 5.15829 11.5488 5.35355 11.3536L8 8.70711L10.6464 11.3536C10.8417 11.5488 11.1583 11.5488 11.3536 11.3536C11.5475 11.1596 11.5488 10.846 11.3575 10.6504L8.70706 8L11.3535 5.35355C11.5488 5.15829 11.5488 4.84171 11.3535 4.64645C11.1596 4.45254 10.8461 4.45119 10.6505 4.6424L8 7.29289L5.35351 4.64645C5.15825 4.45118 4.84166 4.45118 4.6464 4.64645Z"/>
  </symbol>
  <symbol id="components">
    <path fill-rule="evenodd" clip-rule="evenodd" d="M5.29285 12.707C4.90232 12.3165 4.90232 11.6833 5.29285 11.2928L7.29285 9.29282C7.68337 8.90229 8.31654 8.90229 8.70706 9.29282L10.7071 11.2928C11.0976 11.6833 11.0976 12.3165 10.7071 12.707L8.70706 14.707C8.31654 15.0976 7.68337 15.0976 7.29285 14.707L5.29285 12.707ZM7.99996 13.9999L5.99995 11.9999L7.99995 9.99993L9.99996 11.9999L7.99996 13.9999Z" fill="#D9D9D9"/>
    <path fill-rule="evenodd" clip-rule="evenodd" d="M1.29292 8.70711C0.902398 8.31658 0.902398 7.68342 1.29292 7.29289L3.29292 5.29289C3.68345 4.90237 4.31661 4.90237 4.70714 5.29289L6.70714 7.29289C7.09766 7.68342 7.09766 8.31658 6.70714 8.70711L4.70714 10.7071C4.31661 11.0976 3.68345 11.0976 3.29292 10.7071L1.29292 8.70711ZM4.00003 10L2.00003 8L4.00003 6L6.00003 8L4.00003 10Z" fill="#D9D9D9"/>
    <path fill-rule="evenodd" clip-rule="evenodd" d="M5.29289 4.70714C4.90237 4.31661 4.90237 3.68345 5.29289 3.29292L7.29289 1.29292C7.68342 0.902399 8.31658 0.902399 8.70711 1.29292L10.7071 3.29292C11.0976 3.68345 11.0976 4.31661 10.7071 4.70714L8.70711 6.70714C8.31658 7.09766 7.68342 7.09766 7.29289 6.70714L5.29289 4.70714ZM8 6.00003L6 4.00003L8 2.00003L10 4.00003L8 6.00003Z" fill="#D9D9D9"/>
    <path fill-rule="evenodd" clip-rule="evenodd" d="M9.29292 8.70711C8.9024 8.31658 8.9024 7.68342 9.29292 7.29289L11.2929 5.29289C11.6834 4.90237 12.3166 4.90237 12.7071 5.29289L14.7071 7.29289C15.0977 7.68342 15.0977 8.31658 14.7071 8.70711L12.7071 10.7071C12.3166 11.0976 11.6834 11.0976 11.2929 10.7071L9.29292 8.70711ZM12 10L10 8L12 6L14 8L12 10Z" fill="#D9D9D9"/>
  </symbol>
  <symbol id="default">
    <path d="M2 4.5L2 2.5C2 2.22386 2.22386 2 2.5 2L4.5 2C4.77614 2 5 2.22386 5 2.5C5 2.77614 4.77614 3 4.5 3L3 3L3 4.5C3 4.77614 2.77614 5 2.5 5C2.22386 5 2 4.77614 2 4.5Z"/>
    <path d="M14 2.5L14 4.5C14 4.77614 13.7761 5 13.5 5C13.2239 5 13 4.77614 13 4.5L13 3L11.5 3C11.2239 3 11 2.77614 11 2.5C11 2.22386 11.2239 2 11.5 2L13.5 2C13.7761 2 14 2.22386 14 2.5Z"/>
    <path d="M14 11.5L14 13.5C14 13.7761 13.7761 14 13.5 14L11.5 14C11.2239 14 11 13.7761 11 13.5C11 13.2239 11.2239 13 11.5 13L13 13L13 11.5C13 11.2239 13.2239 11 13.5 11C13.7761 11 14 11.2239 14 11.5Z"/>
    <path d="M2 13.5L2 11.5C2 11.2239 2.22386 11 2.5 11C2.77614 11 3 11.2239 3 11.5L3 13L4.5 13C4.77614 13 5 13.2239 5 13.5C5 13.7761 4.77614 14 4.5 14L2.5 14C2.22386 14 2 13.7761 2 13.5Z"/>
    <path d="M4.85369 11.8535C4.65843 12.0488 4.3418 12.0488 4.14658 11.8535C3.95137 11.6583 3.95132 11.3417 4.14658 11.1464L11.1465 4.14653C11.3418 3.95126 11.6584 3.95131 11.8536 4.14653C12.0488 4.34175 12.0489 4.65837 11.8536 4.85363L4.85369 11.8535Z"/>
    <path d="M4.85369 11.8535C4.65843 12.0488 4.3418 12.0488 4.14658 11.8535C3.95137 11.6583 3.95132 11.3417 4.14658 11.1464L11.1465 4.14653C11.3418 3.95126 11.6584 3.95131 11.8536 4.14653C12.0488 4.34175 12.0489 4.65837 11.8536 4.85363L4.85369 11.8535Z"/>
    <path d="M7.67215 11.8537C7.47689 12.0489 7.16027 12.0489 6.96505 11.8537C6.76983 11.6585 6.76978 11.3418 6.96505 11.1466L11.1465 6.96512C11.3418 6.76986 11.6584 6.7699 11.8536 6.96512C12.0488 7.16034 12.0489 7.47696 11.8536 7.67223L7.67215 11.8537Z"/>
    <path d="M7.67215 11.8537C7.47689 12.0489 7.16027 12.0489 6.96505 11.8537C6.76983 11.6585 6.76978 11.3418 6.96505 11.1466L11.1465 6.96512C11.3418 6.76986 11.6584 6.7699 11.8536 6.96512C12.0488 7.16034 12.0489 7.47696 11.8536 7.67223L7.67215 11.8537Z"/>
    <path d="M10.4922 11.8537C10.2969 12.0489 9.98027 12.0489 9.78505 11.8537C9.58983 11.6585 9.58978 11.3418 9.78505 11.1466L11.1465 9.78512C11.3418 9.58986 11.6584 9.5899 11.8536 9.78512C12.0489 9.98034 12.0489 10.297 11.8536 10.4922L10.4922 11.8537Z"/>
    <path d="M10.4922 11.8537C10.2969 12.0489 9.98027 12.0489 9.78505 11.8537C9.58983 11.6585 9.58978 11.3418 9.78505 11.1466L11.1465 9.78512C11.3418 9.58986 11.6584 9.5899 11.8536 9.78512C12.0489 9.98034 12.0489 10.297 11.8536 10.4922L10.4922 11.8537Z"/>
    <path d="M4.85369 9.03774C4.65843 9.23301 4.3418 9.23296 4.14658 9.03774C3.95137 8.84253 3.95132 8.5259 4.14658 8.33064L8.33069 4.14652C8.52596 3.95125 8.84258 3.9513 9.0378 4.14652C9.23302 4.34173 9.23307 4.65836 9.0378 4.85362L4.85369 9.03774Z"/>
    <path d="M4.85369 9.03774C4.65843 9.23301 4.3418 9.23296 4.14658 9.03774C3.95137 8.84253 3.95132 8.5259 4.14658 8.33064L8.33069 4.14652C8.52596 3.95125 8.84258 3.9513 9.0378 4.14652C9.23302 4.34173 9.23307 4.65836 9.0378 4.85362L4.85369 9.03774Z"/>
    <path d="M4.86421 6.20716C4.66894 6.40242 4.35232 6.40238 4.1571 6.20716C3.96188 6.01194 3.96184 5.69532 4.1571 5.50005L5.51072 4.14652C5.70598 3.95125 6.02261 3.9513 6.21782 4.14652C6.41304 4.34174 6.41309 4.65836 6.21782 4.85363L4.86421 6.20716Z"/>
    <path d="M4.86421 6.20716C4.66894 6.40242 4.35232 6.40238 4.1571 6.20716C3.96188 6.01194 3.96184 5.69532 4.1571 5.50005L5.51072 4.14652C5.70598 3.95125 6.02261 3.9513 6.21782 4.14652C6.41304 4.34174 6.41309 4.65836 6.21782 4.85363L4.86421 6.20716Z"/>
  </symbol>
  <symbol id="hide">
    <path d="M14.86 8C14.2114 10.2822 11.3865 12 7.99998 12C7.19141 12 6.41486 11.9021 5.6923 11.7219L4.8858 12.5284C5.84297 12.8321 6.89533 13 7.99998 13C11.964 13 15.2546 10.8377 15.8894 8C15.5621 6.53688 14.5288 5.25331 13.0611 4.3531L12.3384 5.07583C13.6107 5.79446 14.5252 6.82204 14.86 8Z"/>
    <path d="M11 8C11 9.65686 9.65685 11 8 11C7.53686 11 7.09822 10.895 6.70659 10.7076L7.48196 9.93226C7.64719 9.97644 7.82084 10 8 10C9.10457 10 10 9.10457 10 8C10 7.82084 9.97644 7.64719 9.93226 7.48196L10.7076 6.70659C10.895 7.09822 11 7.53686 11 8Z"/>
    <path fill-rule="evenodd" clip-rule="evenodd" d="M0.110596 8C0.745366 5.16229 4.03599 3 7.99998 3C9.10464 3 10.157 3.16792 11.1142 3.47158L12.5962 1.98959C12.7914 1.79433 13.108 1.79433 13.3033 1.98959C13.4985 2.18486 13.4985 2.50144 13.3033 2.6967L12.1366 3.86334L11.3796 4.62032L10.1213 5.87866L9.41419 6.58577L6.58577 9.4142L5.87866 10.1213L4.62029 11.3797L3.86331 12.1366L2.69666 13.3033C2.5014 13.4986 2.18481 13.4986 1.98955 13.3033C1.79429 13.108 1.79429 12.7915 1.98955 12.5962L2.93885 11.6469C1.47121 10.7467 0.437884 9.46313 0.110596 8ZM7.99998 4C4.61344 4 1.78859 5.71776 1.14001 8C1.47477 9.17796 2.38929 10.2055 3.66158 10.9242L5.29236 9.29339C5.10495 8.90176 5 8.46314 5 8C5 6.34315 6.34315 5 8 5C8.46314 5 8.90176 5.10495 9.29339 5.29236L10.3077 4.27808C9.58511 4.09792 8.80856 4 7.99998 4ZM8 6C6.89543 6 6 6.89543 6 8C6 8.17915 6.02355 8.3528 6.06773 8.51801L8.51801 6.06774C8.35279 6.02356 8.17915 6 8 6Z"/>
  </symbol>
  <symbol id="indeterminate">
    <path d="M2.5 8C2.5 7.72386 2.72386 7.5 3 7.5H13C13.2761 7.5 13.5 7.72386 13.5 8C13.5 8.27614 13.2761 8.5 13 8.5H3C2.72386 8.5 2.5 8.27614 2.5 8Z"/>
  </symbol>
  <symbol id="minimize">
    <path d="M3.5 9.5C3.5 9.22386 3.72386 9 4 9H12C12.2761 9 12.5 9.22386 12.5 9.5C12.5 9.77614 12.2761 10 12 10H4C3.72386 10 3.5 9.77614 3.5 9.5Z"/>
  </symbol>
  <symbol id="plus">
    <path d="M8 12.5C7.72386 12.5 7.5 12.2761 7.5 12L7.5 8.5L4 8.5C3.72386 8.5 3.5 8.27614 3.5 8C3.5 7.72386 3.72386 7.5 4 7.5L7.5 7.5L7.5 4C7.5 3.72386 7.72386 3.5 8 3.5C8.27614 3.5 8.5 3.72386 8.5 4L8.5 7.5L12 7.5C12.2761 7.5 12.5 7.72386 12.5 8C12.5 8.27614 12.2761 8.5 12 8.5L8.5 8.5L8.5 12C8.5 12.2761 8.27614 12.5 8 12.5Z"/>
  </symbol>
</svg>
