<svg xmlns="http://www.w3.org/2000/svg">
  <symbol id="arrow">
    <path d="M7.64645 10.3536C7.84171 10.5488 8.15829 10.5488 8.35355 10.3536L12.8536 5.85355C13.0488 5.65829 13.0488 5.34171 12.8536 5.14645C12.6583 4.95118 12.3417 4.95118 12.1464 5.14645L8 9.29289L3.85355 5.14645C3.65829 4.95118 3.34171 4.95118 3.14645 5.14645C2.95118 5.34171 2.95119 5.65829 3.14645 5.85355L7.64645 10.3536Z"/>
  </symbol>
  <symbol id="bell">
    <path d="M8 15C7.25972 15 6.61337 14.5978 6.26756 14H9.73244C9.38663 14.5978 8.74028 15 8 15Z"/>
    <path fill-rule="evenodd" clip-rule="evenodd" d="M2 11C2 9.89543 2.89543 9 4 9V7C4 5.13616 5.27477 3.57006 7 3.12602V3C7 2.44772 7.44772 2 8 2C8.55228 2 9 2.44772 9 3V3.12602C10.7252 3.57006 12 5.13616 12 7V9C13.1046 9 14 9.89543 14 11L14 12C14 12.5523 13.5523 13 13 13H3C2.44772 13 2.00004 12.5523 2.00004 12L2 11ZM3.00004 11C3.00004 10.4477 3.44776 10 4.00004 10C4.55233 10 5 9.55228 5 9V7C5 5.34315 6.34315 4 8 4C9.65685 4 11 5.34315 11 7V9C11 9.55228 11.4478 10 12 10C12.5523 10 13 10.4477 13 11V12H3.00004V11Z"/>
  </symbol>
  <symbol id="blind">
    <path fill-rule="evenodd" clip-rule="evenodd" d="M6.6784 5.26409C7.14724 5.08255 7.58256 5 8.00005 5C9.32198 5 10.8228 5.82765 13 8.00495C12.3058 8.69921 11.6802 9.25624 11.1072 9.69292L11.8205 10.4062C12.417 9.94217 13.0417 9.37745 13.7071 8.71206C14.0977 8.32153 14.0977 7.68837 13.7071 7.29784C10.6497 4.24041 8.4515 3.30888 5.9176 4.50329L6.6784 5.26409Z"/>
    <path fill-rule="evenodd" clip-rule="evenodd" d="M2.29289 8.71206C1.90237 8.32153 1.90237 7.68837 2.29289 7.29784C2.96042 6.63033 3.58699 6.06414 4.18503 5.5993L3.75736 5.17162C3.5621 4.97636 3.5621 4.65978 3.75736 4.46452C3.95262 4.26926 4.2693 4.26921 4.46456 4.46447L11.5356 11.5355C11.7309 11.7308 11.7308 12.0474 11.5355 12.2427C11.3403 12.438 11.0237 12.438 10.8284 12.2427L10.0887 11.503C7.55312 12.7006 5.35247 11.7716 2.29289 8.71206ZM3 8.00495C5.17716 10.1821 6.67883 11.0091 8.00122 11.0087C8.42037 11.0086 8.85743 10.9254 9.32819 10.7424L8.518 9.93227C8.35279 9.97645 8.17914 10 8 10C6.89543 10 6 9.10457 6 8C6 7.82086 6.02355 7.64721 6.06773 7.482L4.8983 6.31256C4.32391 6.74995 3.69658 7.30838 3 8.00495Z"/>
    <path d="M8 6C9.10457 6 10 6.89543 10 8C10 8.17913 9.97645 8.35277 9.93228 8.51797L7.48203 6.06772C7.64723 6.02355 7.82087 6 8 6Z"/>
  </symbol>
  <symbol id="cancel">
    <path fill-rule="evenodd" clip-rule="evenodd" d="M8 13C5.23858 13 3 10.7614 3 8C3 5.23858 5.23858 3 8 3C10.7614 3 13 5.23858 13 8C13 10.7614 10.7614 13 8 13ZM4 8C4 10.2091 5.79086 12 8 12C8.92434 12 9.77546 11.6865 10.4528 11.1599L4.84005 5.5472C4.31353 6.22454 4 7.07566 4 8ZM12 8C12 5.79086 10.2091 4 8 4C7.07563 4 6.2245 4.31355 5.54715 4.84009L11.1599 10.4528C11.6865 9.7755 12 8.92437 12 8Z"/>
  </symbol>
  <symbol id="check">
    <path d="M5.64645 11.8536C5.84171 12.0488 6.15829 12.0488 6.35355 11.8536L12.8536 5.35355C13.0488 5.15829 13.0488 4.84171 12.8536 4.64645C12.6583 4.45118 12.3417 4.45118 12.1464 4.64645L6 10.7929L3.85355 8.64645C3.65829 8.45118 3.34171 8.45118 3.14645 8.64645C2.95118 8.84171 2.95119 9.15829 3.14645 9.35355L5.64645 11.8536Z"/>
  </symbol>
  <symbol id="close">
    <path d="M4.14639 4.14643C3.95112 4.34169 3.95112 4.65828 4.14639 4.85354L7.29288 7.99998L4.14643 11.1464C3.95117 11.3417 3.95117 11.6583 4.14643 11.8535C4.34169 12.0488 4.65828 12.0488 4.85354 11.8535L7.99999 8.70709L11.1464 11.8535C11.3417 12.0488 11.6583 12.0488 11.8535 11.8535C12.0475 11.6596 12.0488 11.346 11.8575 11.1504L8.70705 7.99998L11.8535 4.85354C12.0488 4.65828 12.0488 4.3417 11.8535 4.14643C11.6596 3.95253 11.346 3.95118 11.1505 4.14239L7.99999 7.29288L4.85349 4.14643C4.65823 3.95117 4.34165 3.95117 4.14639 4.14643Z"/>
  </symbol>
  <symbol id="component">
    <path fill-rule="evenodd" clip-rule="evenodd" d="M6.29292 7.29286C5.9024 7.68339 5.9024 8.31655 6.29292 8.70708L7.29295 9.70708C7.68348 10.0976 8.31664 10.0976 8.70717 9.70708L9.70714 8.70708C10.0977 8.31655 10.0977 7.68339 9.70714 7.29286L8.70717 6.29286C8.31664 5.90234 7.68348 5.90234 7.29295 6.29286L6.29292 7.29286ZM8.00006 6.99997L7.00003 7.99997L8.00006 8.99997L9.00003 7.99997L8.00006 6.99997Z"/>
    <path fill-rule="evenodd" clip-rule="evenodd" d="M8.70717 13.7071C8.31664 14.0976 7.68348 14.0976 7.29295 13.7071L2.29292 8.70708C1.9024 8.31655 1.9024 7.68339 2.29292 7.29286L7.29295 2.29286C7.68348 1.90234 8.31664 1.90234 8.70717 2.29286L13.7071 7.29286C14.0977 7.68339 14.0977 8.31655 13.7071 8.70708L8.70717 13.7071ZM3.00003 7.99997L8.00006 13L13 7.99997L8.00006 2.99997L3.00003 7.99997Z"/>
  </symbol>
  <symbol id="components">
    <path fill-rule="evenodd" clip-rule="evenodd" d="M2.29289 7.29292C1.90237 7.68344 1.90237 8.31661 2.29289 8.70713L3.79289 10.2071C4.18342 10.5976 4.81658 10.5976 5.20711 10.2071L6.70711 8.70713C7.09763 8.31661 7.09763 7.68344 6.70711 7.29292L5.20711 5.79289C4.81658 5.40237 4.18342 5.40237 3.79289 5.79289L2.29289 7.29292ZM4.5 6.5L3 8.00003L4.5 9.5L6 8.00003L4.5 6.5Z"/>
    <path fill-rule="evenodd" clip-rule="evenodd" d="M9.29289 7.29292C8.90237 7.68344 8.90237 8.31661 9.29289 8.70713L10.7929 10.2071C11.1834 10.5976 11.8166 10.5976 12.2071 10.2071L13.7071 8.70713C14.0976 8.31661 14.0976 7.68344 13.7071 7.29292L12.2071 5.79289C11.8166 5.40237 11.1834 5.40237 10.7929 5.79289L9.29289 7.29292ZM11.5 6.5L10 8.00003L11.5 9.5L13 8.00003L11.5 6.5Z"/>
    <path fill-rule="evenodd" clip-rule="evenodd" d="M5.79289 3.79289C5.40237 4.18342 5.40237 4.81658 5.79289 5.20711L7.29289 6.70708C7.68342 7.0976 8.31658 7.0976 8.70711 6.70708L10.2071 5.20711C10.5976 4.81658 10.5976 4.18342 10.2071 3.79289L8.70711 2.29286C8.31658 1.90234 7.68342 1.90234 7.29289 2.29286L5.79289 3.79289ZM8 2.99997L6.5 4.5L8 5.99997L9.5 4.5L8 2.99997Z"/>
    <path fill-rule="evenodd" clip-rule="evenodd" d="M5.79289 10.7929C5.40237 11.1834 5.40237 11.8166 5.79289 12.2071L7.29289 13.7071C7.68342 14.0976 8.31658 14.0976 8.70711 13.7071L10.2071 12.2071C10.5976 11.8166 10.5976 11.1834 10.2071 10.7929L8.70711 9.29286C8.31658 8.90234 7.68342 8.90234 7.29289 9.29286L5.79289 10.7929ZM8 9.99997L6.5 11.5L8 13L9.5 11.5L8 9.99997Z"/>
  </symbol>
  <symbol id="copied">
    <path fill-rule="evenodd" clip-rule="evenodd" d="M4.99997 2.99999C4.99997 1.89542 5.8954 0.99999 6.99997 0.99999H8.99997C10.1045 0.99999 11 1.89542 11 2.99999H12C12.5523 2.99999 13 3.44771 13 3.99999V13C13 13.5523 12.5523 14 12 14H3.99997C3.44768 14 2.99997 13.5523 2.99997 13V3.99999C2.99997 3.44771 3.44768 2.99999 3.99997 2.99999H4.99997ZM12 13L4.00001 13V3.99999L5.00001 3.99999C5.00001 4.55228 5.44768 4.99999 5.99997 4.99999H9.99997C10.5523 4.99999 11 4.55228 11 3.99999L12 3.99999V13ZM6.00001 2.99999C6.00001 2.44771 6.44773 1.99999 7.00001 1.99999H9.00001C9.5523 1.99999 10 2.44771 10 2.99999V3.99999H6.00001V2.99999Z"/>
    <path d="M6.64642 10.8535C6.84168 11.0488 7.15826 11.0488 7.35352 10.8535L10.8535 7.35354C11.0488 7.15828 11.0488 6.8417 10.8535 6.64644C10.6583 6.45117 10.3417 6.45117 10.1464 6.64644L6.99997 9.79288L5.85352 8.64644C5.65826 8.45117 5.34168 8.45117 5.14642 8.64644C4.95115 8.8417 4.95115 9.15828 5.14642 9.35354L6.64642 10.8535Z"/>
  </symbol>
  <symbol id="copy">
    <path fill-rule="evenodd" clip-rule="evenodd" d="M5 3C5 1.89543 5.89543 1 7 1H9C10.1046 1 11 1.89543 11 3H12C12.5523 3 13 3.44772 13 4V13C13 13.5523 12.5523 14 12 14H4C3.44772 14 3 13.5523 3 13V4C3 3.44772 3.44772 3 4 3H5ZM12 13L4.00004 13V4L5.00004 4C5.00004 4.55229 5.44772 5 6 5H10C10.5523 5 11 4.55229 11 4L12 4V13ZM6.00004 3C6.00004 2.44772 6.44776 2 7.00004 2H9.00004C9.55233 2 10 2.44772 10 3V4H6.00004V3Z"/>
  </symbol>
  <symbol id="cube">
    <path fill-rule="evenodd" clip-rule="evenodd" d="M7.84168 13.9398C7.59843 14.0283 7.33036 14.0189 7.09384 13.9138L2.59386 11.9138C2.23273 11.7533 2 11.3952 2 11V5C2 4.57947 2.26309 4.20388 2.65831 4.06019L8.14901 2.06391C8.39226 1.97547 8.66032 1.98479 8.89684 2.08991L13.4061 4.09404C13.7673 4.25454 14 4.61266 14 5.00785V11.0003C14 11.4209 13.7369 11.7965 13.3417 11.9401L7.84168 13.9398ZM3 5.69029L7 7.46807V12.7778L3 11V5.69029ZM3.50002 4.81821L7.50002 6.59598L12.4907 4.7815L8.4907 3.00372L3.50002 4.81821ZM8 12.8182V7.47825L13 5.66038V11.0003L8 12.8182Z"/>
  </symbol>
  <symbol id="default">
    <path d="M4.85369 11.8535C4.65843 12.0488 4.3418 12.0488 4.14658 11.8535C3.95137 11.6583 3.95132 11.3417 4.14658 11.1464L11.1465 4.14653C11.3418 3.95127 11.6584 3.95131 11.8536 4.14653C12.0488 4.34175 12.0489 4.65837 11.8536 4.85364L4.85369 11.8535Z"/>
    <path d="M4.85369 11.8535C4.65843 12.0488 4.3418 12.0488 4.14658 11.8535C3.95137 11.6583 3.95132 11.3417 4.14658 11.1464L11.1465 4.14653C11.3418 3.95127 11.6584 3.95131 11.8536 4.14653C12.0488 4.34175 12.0489 4.65837 11.8536 4.85364L4.85369 11.8535Z"/>
    <path d="M7.67215 11.8537C7.47689 12.0489 7.16027 12.0489 6.96505 11.8537C6.76983 11.6585 6.76978 11.3418 6.96505 11.1466L11.1465 6.96512C11.3418 6.76986 11.6584 6.7699 11.8536 6.96512C12.0488 7.16034 12.0489 7.47696 11.8536 7.67223L7.67215 11.8537Z"/>
    <path d="M7.67215 11.8537C7.47689 12.0489 7.16027 12.0489 6.96505 11.8537C6.76983 11.6585 6.76978 11.3418 6.96505 11.1466L11.1465 6.96512C11.3418 6.76986 11.6584 6.7699 11.8536 6.96512C12.0488 7.16034 12.0489 7.47696 11.8536 7.67223L7.67215 11.8537Z"/>
    <path d="M10.4922 11.8537C10.2969 12.0489 9.98027 12.0489 9.78505 11.8537C9.58983 11.6585 9.58978 11.3418 9.78505 11.1466L11.1465 9.78512C11.3418 9.58986 11.6584 9.58991 11.8536 9.78512C12.0489 9.98034 12.0489 10.297 11.8536 10.4922L10.4922 11.8537Z"/>
    <path d="M10.4922 11.8537C10.2969 12.0489 9.98027 12.0489 9.78505 11.8537C9.58983 11.6585 9.58978 11.3418 9.78505 11.1466L11.1465 9.78512C11.3418 9.58986 11.6584 9.58991 11.8536 9.78512C12.0489 9.98034 12.0489 10.297 11.8536 10.4922L10.4922 11.8537Z"/>
    <path d="M4.85369 9.03775C4.65843 9.23301 4.3418 9.23296 4.14658 9.03775C3.95137 8.84253 3.95132 8.5259 4.14658 8.33064L8.33069 4.14652C8.52596 3.95125 8.84258 3.9513 9.0378 4.14652C9.23302 4.34173 9.23307 4.65836 9.0378 4.85362L4.85369 9.03775Z"/>
    <path d="M4.85369 9.03775C4.65843 9.23301 4.3418 9.23296 4.14658 9.03775C3.95137 8.84253 3.95132 8.5259 4.14658 8.33064L8.33069 4.14652C8.52596 3.95125 8.84258 3.9513 9.0378 4.14652C9.23302 4.34173 9.23307 4.65836 9.0378 4.85362L4.85369 9.03775Z"/>
    <path d="M4.86421 6.20716C4.66894 6.40242 4.35232 6.40238 4.1571 6.20716C3.96188 6.01194 3.96184 5.69532 4.1571 5.50005L5.51072 4.14652C5.70598 3.95126 6.02261 3.9513 6.21782 4.14652C6.41304 4.34174 6.41309 4.65836 6.21782 4.85363L4.86421 6.20716Z"/>
    <path d="M4.86421 6.20716C4.66894 6.40242 4.35232 6.40238 4.1571 6.20716C3.96188 6.01194 3.96184 5.69532 4.1571 5.50005L5.51072 4.14652C5.70598 3.95126 6.02261 3.9513 6.21782 4.14652C6.41304 4.34174 6.41309 4.65836 6.21782 4.85363L4.86421 6.20716Z"/>
    <path d="M2.5 5C2.22386 5 2 4.77614 2 4.5L2 3C2 2.44772 2.44771 2 3 2L4.5 2C4.77614 2 5 2.22386 5 2.5C5 2.77614 4.77614 3 4.5 3L3 3L3 4.5C3 4.77614 2.77614 5 2.5 5Z"/>
    <path d="M2.5 11C2.77614 11 3 11.2239 3 11.5L3 13L4.5 13C4.77614 13 5 13.2239 5 13.5C5 13.7761 4.77614 14 4.5 14L3 14C2.44771 14 2 13.5523 2 13L2 11.5C2 11.2239 2.22386 11 2.5 11Z"/>
    <path d="M13.5 11C13.7761 11 14 11.2239 14 11.5L14 13C14 13.5523 13.5523 14 13 14L11.5 14C11.2239 14 11 13.7761 11 13.5C11 13.2239 11.2239 13 11.5 13L13 13L13 11.5C13 11.2239 13.2239 11 13.5 11Z"/>
    <path d="M13.5 5C13.2239 5 13 4.77614 13 4.5L13 3L11.5 3C11.2239 3 11 2.77614 11 2.5C11 2.22386 11.2239 2 11.5 2L13 2C13.5523 2 14 2.44772 14 3L14 4.5C14 4.77614 13.7761 5 13.5 5Z"/>
  </symbol>
  <symbol id="delete">
    <path d="M6 7.5C6 7.22386 6.22386 7 6.5 7C6.77614 7 7 7.22386 7 7.5V11.5C7 11.7761 6.77614 12 6.5 12C6.22386 12 6 11.7761 6 11.5V7.5Z"/>
    <path d="M9 7.5C9 7.22386 9.22386 7 9.5 7C9.77614 7 10 7.22386 10 7.5V11.5C10 11.7761 9.77614 12 9.5 12C9.22386 12 9 11.7761 9 11.5V7.5Z"/>
    <path fill-rule="evenodd" clip-rule="evenodd" d="M7 7.5V11.5C7 11.7761 6.77614 12 6.5 12C6.22386 12 6 11.7761 6 11.5V7.5C6 7.22386 6.22386 7 6.5 7C6.77614 7 7 7.22386 7 7.5ZM10 7.5V11.5C10 11.7761 9.77614 12 9.5 12C9.22386 12 9 11.7761 9 11.5V7.5C9 7.22386 9.22386 7 9.5 7C9.77614 7 10 7.22386 10 7.5Z"/>
    <path fill-rule="evenodd" clip-rule="evenodd" d="M5 14H11C11.5523 14 12 13.5523 12 13V6C12.5523 6 13 5.55228 13 5V4C13 3.44772 12.5523 3 12 3H10C10 2.44772 9.55228 2 9 2H7C6.44772 2 6 2.44772 6 3H4C3.44772 3 3 3.44772 3 4V5C3 5.55228 3.44772 6 4 6V13C4 13.5523 4.44772 14 5 14ZM5.00004 13L5.00004 6L11 6L11 13H5.00004ZM4 5H12L12 4L4.00004 4L4 5Z"/>
  </symbol>
  <symbol id="down">
    <path fill-rule="evenodd" clip-rule="evenodd" d="M8.70711 12.7071L11.7071 9.70711C12.0976 9.31658 12.0976 8.68342 11.7071 8.29289C11.5119 8.09764 11.2559 8.00001 11 8H10V4C10 3.44771 9.55231 3 9.00003 3H7.00003C6.44774 3 6.00003 3.44771 6.00003 4L5.99998 7.99999L4.99999 8C4.74407 8.00001 4.48816 8.09764 4.29291 8.29289C3.90238 8.68342 3.90238 9.31658 4.29291 9.70711L7.2929 12.7071C7.68342 13.0976 8.31659 13.0976 8.70711 12.7071ZM9.00003 4L8.99998 8.99999H11L7.99998 12L4.99999 8.99999L6.99998 8.99999L6.99998 3.99999L9.00003 4Z"/>
  </symbol>
  <symbol id="edit">
    <path fill-rule="evenodd" clip-rule="evenodd" d="M12 13H4C3.44772 13 3 12.5523 3 12V4C3 3.44772 3.44772 3 4 3H9.46446L8.46445 4H4.00004L4.00004 12H12V7.53569L13 6.53568L13 12C13 12.5523 12.5523 13 12 13Z"/>
    <path fill-rule="evenodd" clip-rule="evenodd" d="M7.41424 10.7071L13.7072 4.41424C14.0978 4.02372 14.0977 3.39052 13.7072 3L13.0001 2.29289C12.6096 1.90237 11.9764 1.90237 11.5859 2.29289L5.29292 8.5858C5.09765 8.78107 5.00002 9.03701 5.00003 9.29294V10V11H6.00003H6.70713C6.96306 11 7.21898 10.9024 7.41424 10.7071ZM13.0001 3.70711L12.293 3.00003L11.5859 3.70714L12.293 4.41421L13.0001 3.70711ZM6.00006 9.29294L6.00003 10H6.70713L11.5859 5.12132L10.8788 4.41421L6.00006 9.29294Z"/>
  </symbol>
  <symbol id="eye">
    <path fill-rule="evenodd" clip-rule="evenodd" d="M2.29289 8.71206C1.90237 8.32153 1.90237 7.68837 2.29289 7.29784C6.69007 2.9007 9.31006 2.90073 13.7071 7.29784C14.0977 7.68837 14.0977 8.32153 13.7071 8.71206C9.31356 13.1056 6.69043 13.1096 2.29289 8.71206ZM8.00005 5C6.67812 5 5.17733 5.82765 3 8.00495C5.17716 10.1821 6.67883 11.0091 8.00122 11.0087C9.32381 11.0083 10.8246 10.1803 13 8.00495C10.8228 5.82765 9.32198 5 8.00005 5Z"/>
    <path d="M10 8C10 9.10457 9.10457 10 8 10C6.89543 10 6 9.10457 6 8C6 6.89543 6.89543 6 8 6C9.10457 6 10 6.89543 10 8ZM7 8C7 8.55228 7.44772 9 8 9C8.55228 9 9 8.55228 9 8C9 7.44772 8.55228 7 8 7C7.44772 7 7 7.44772 7 8Z"/>
  </symbol>
  <symbol id="gear">
    <path fill-rule="evenodd" clip-rule="evenodd" d="M9.92036 2.31389C9.66528 2.50116 9.47416 2.77043 9.38585 3.08286C9.37606 3.1175 9.36501 3.15161 9.35274 3.18514C9.15096 3.73665 8.6215 4.13029 8.00009 4.13029C7.37867 4.13029 6.8492 3.73663 6.64743 3.18509C6.63517 3.15158 6.62412 3.11748 6.61433 3.08286C6.52602 2.77041 6.33487 2.50112 6.07977 2.31384C5.90492 2.37287 5.73368 2.43973 5.56647 2.51402C5.17629 2.68736 4.80802 2.9011 4.467 3.14995C4.31802 3.25866 4.17424 3.37407 4.03609 3.49573C4.07107 3.80961 4.20861 4.10905 4.43459 4.3413C4.45998 4.36739 4.48425 4.39433 4.50739 4.42205C4.88345 4.87252 4.9593 5.52734 4.64881 6.06512C4.33811 6.60327 3.73247 6.86499 3.15395 6.76397C3.11879 6.75783 3.08372 6.75035 3.04883 6.74151C2.73426 6.66181 2.40567 6.69262 2.11605 6.81974C2.08033 6.9988 2.05258 7.18074 2.03318 7.36518C2.01125 7.57378 2 7.78557 2 7.99999C2 8.21438 2.01124 8.42614 2.03318 8.63472C2.05257 8.81916 2.08032 9.00111 2.11604 9.18019C2.40565 9.3073 2.73423 9.3381 3.0488 9.2584C3.08369 9.24956 3.11876 9.24208 3.15393 9.23594C3.73245 9.13493 4.33808 9.39664 4.64878 9.93479C4.95927 10.4726 4.88342 11.1274 4.50734 11.5779C4.48421 11.6056 4.45994 11.6325 4.43456 11.6586C4.20857 11.8909 4.07102 12.1903 4.03606 12.5042C4.17419 12.6259 4.31796 12.7413 4.46693 12.85C4.80795 13.0988 5.17621 13.3126 5.56639 13.4859C5.73361 13.5602 5.90486 13.6271 6.07971 13.6861C6.33481 13.4989 6.52594 13.2296 6.61425 12.9171C6.62404 12.8825 6.6351 12.8484 6.64736 12.8149C6.84913 12.2633 7.3786 11.8697 8.00001 11.8697C8.62143 11.8697 9.1509 12.2633 9.35267 12.8149C9.36493 12.8484 9.37599 12.8825 9.38577 12.9171C9.47409 13.2296 9.66522 13.4988 9.92031 13.6861C10.0952 13.6271 10.2664 13.5602 10.4336 13.4859C10.8238 13.3126 11.192 13.0988 11.533 12.85C11.682 12.7413 11.8258 12.6259 11.964 12.5042C11.929 12.1903 11.7915 11.8909 11.5655 11.6587C11.5401 11.6326 11.5158 11.6056 11.4927 11.5779C11.1166 11.1274 11.0408 10.4726 11.3513 9.93489C11.662 9.39677 12.2676 9.13506 12.8461 9.23603C12.8813 9.24217 12.9163 9.24965 12.9513 9.2585C13.2658 9.33819 13.5943 9.30739 13.8839 9.18032C13.9197 9.00122 13.9474 8.81923 13.9668 8.63476C13.9888 8.42617 14 8.2144 14 7.99999C14 7.78562 13.9888 7.57387 13.9668 7.36531C13.9474 7.18082 13.9197 6.99882 13.8839 6.8197C13.5944 6.69264 13.2658 6.66187 12.9513 6.74155C12.9164 6.7504 12.8813 6.75789 12.8461 6.76403C12.2676 6.86498 11.662 6.60327 11.3513 6.06516C11.0409 5.5274 11.1167 4.87262 11.4927 4.42215C11.5159 4.39441 11.5402 4.36745 11.5656 4.34134C11.7915 4.10912 11.9291 3.80971 11.964 3.49586C11.8259 3.37418 11.6821 3.25875 11.5331 3.15002C11.1921 2.90119 10.8239 2.68745 10.4337 2.5141C10.2665 2.4398 10.0952 2.37292 9.92036 2.31389ZM8.00003 10C9.1046 10 10 9.10457 10 8C10 6.89543 9.1046 6 8.00003 6C6.89546 6 6.00003 6.89543 6.00003 8C6.00003 9.10457 6.89546 10 8.00003 10Z"/>
    <path d="M9.00003 8C9.00003 8.55228 8.55232 9 8.00003 9C7.44775 9 7.00003 8.55228 7.00003 8C7.00003 7.44772 7.44775 7 8.00003 7C8.55232 7 9.00003 7.44772 9.00003 8Z"/>
  </symbol>
  <symbol id="home">
    <path fill-rule="evenodd" clip-rule="evenodd" d="M1.29286 7.29288L7.29286 1.29288C7.68338 0.90236 8.31655 0.90236 8.70707 1.29288L14.7071 7.29288C15.0976 7.6834 15.0976 8.31657 14.7071 8.70709C14.5118 8.90235 14.2559 8.99998 14 8.99998L13 9L12.9999 13C12.9999 13.5523 12.5522 14 11.9999 14H3.99994C3.44766 14 2.99994 13.5523 2.99994 13V8.99999H1.99995C1.74403 8.99998 1.48812 8.90235 1.29286 8.70709C0.902339 8.31657 0.902338 7.6834 1.29286 7.29288ZM6.99999 10L6.99999 13H8.99999L8.99994 9.99998L6.99999 10ZM3.99994 13L3.99999 8H1.99999L7.99999 2.00001L14 8H12V13L9.99999 13L9.99994 9.99998C9.99994 9.44772 9.5522 9.00001 8.99994 8.99998L6.99999 9C6.4477 9 5.99999 9.44772 5.99999 10L5.99999 13L3.99994 13Z"/>
  </symbol>
  <symbol id="indeterminate">
    <path d="M3 8C3 7.72386 3.22386 7.5 3.5 7.5L12.5 7.5C12.7761 7.5 13 7.72386 13 8C13 8.27614 12.7761 8.5 12.5 8.5H3.5C3.22386 8.5 3 8.27614 3 8Z"/>
  </symbol>
  <symbol id="install">
    <path fill-rule="evenodd" clip-rule="evenodd" d="M7.29289 11.7071L4.29289 8.70711C3.90237 8.31658 3.90237 7.68342 4.29289 7.29289C4.48815 7.09764 4.74406 7.00001 4.99998 7H5.99997V3C5.99997 2.44772 6.44769 2 6.99997 2H8.99997C9.55226 2 9.99997 2.44772 9.99997 3L10 6.99999L11 7C11.2559 7.00001 11.5118 7.09764 11.7071 7.29289C12.0976 7.68342 12.0976 8.31658 11.7071 8.70711L8.7071 11.7071C8.31658 12.0976 7.68341 12.0976 7.29289 11.7071ZM6.99997 3L7.00002 7.99999H5.00002L8.00002 11L11 7.99999H9.00002V2.99999L6.99997 3Z"/>
    <path d="M14 13C14 13.5523 13.5523 14 13 14H3C2.44771 14 2 13.5523 2 13V11.5C2 11.2239 2.22386 11 2.5 11C2.77614 11 3 11.2239 3 11.5V13L13 13V11.5C13 11.2239 13.2239 11 13.5 11C13.7761 11 14 11.2239 14 11.5L14 13Z"/>
  </symbol>
  <symbol id="left">
    <path fill-rule="evenodd" clip-rule="evenodd" d="M3.29289 7.2929L6.29289 4.29291C6.68341 3.90238 7.31658 3.90238 7.7071 4.29291C7.90236 4.48816 7.99999 4.74407 7.99999 4.99999V5.99998H12C12.5523 5.99998 13 6.4477 13 6.99998V8.99998C13 9.55227 12.5523 9.99998 12 9.99998L8.00001 10L7.99999 11C7.99999 11.2559 7.90236 11.5119 7.7071 11.7071C7.31658 12.0976 6.68341 12.0976 6.29289 11.7071L3.29289 8.70711C2.90237 8.31659 2.90237 7.68343 3.29289 7.2929ZM12 6.99998L7.00001 7.00003V5.00004L4.00001 8.00003L7.00001 11V9.00003H12L12 6.99998Z"/>
  </symbol>
  <symbol id="lock">
    <path d="M7 9C7 8.44772 7.44772 8 8 8C8.55228 8 9 8.44772 9 9C9 9.37014 8.7989 9.69331 8.5 9.86622V10.5C8.5 10.7761 8.27614 11 8 11C7.72386 11 7.5 10.7761 7.5 10.5V9.86622C7.2011 9.69331 7 9.37014 7 9Z"/>
    <path fill-rule="evenodd" clip-rule="evenodd" d="M4 13H12C12.5523 13 13 12.5523 13 12L13 7C13 6.44772 12.5523 6 12 6H11V5C11 3.89543 10.1046 3 9 3H7C5.89543 3 5 3.89543 5 5V6H4C3.44772 6 3 6.44772 3 7V12C3 12.5523 3.44772 13 4 13ZM4.00004 12L4.00004 7H12V12H4.00004ZM6 6V5C6 4.44772 6.44772 4 7 4H9C9.55228 4 10 4.44772 10 5V6H6Z"/>
  </symbol>
  <symbol id="message">
    <path fill-rule="evenodd" clip-rule="evenodd" d="M2 5C2 3.89543 2.89543 3 4 3H12C13.1046 3 14 3.89543 14 5V10C14 11.1046 13.1046 12 12 12H5.41415L3.70711 13.707C3.31658 14.0976 2.68342 14.0976 2.29289 13.707C2.09764 13.5118 2.00001 13.2559 2 13L2 5ZM12 4C12.5523 4 13 4.44772 13 5L13 10C13 10.5523 12.5522 11 12 11H5L2.99999 12.9999L3.00004 5C3.00004 4.44772 3.44776 4 4.00004 4H12Z"/>
    <path d="M6 8C6 8.55228 5.55228 9 5 9C4.44772 9 4 8.55228 4 8C4 7.44772 4.44772 7 5 7C5.55228 7 6 7.44772 6 8Z"/>
    <path d="M9 8C9 8.55228 8.55228 9 8 9C7.44772 9 7 8.55228 7 8C7 7.44772 7.44772 7 8 7C8.55228 7 9 7.44772 9 8Z"/>
    <path d="M12 8C12 8.55228 11.5523 9 11 9C10.4477 9 10 8.55228 10 8C10 7.44772 10.4477 7 11 7C11.5523 7 12 7.44772 12 8Z"/>
  </symbol>
  <symbol id="minimize">
    <path d="M3 9.5C3 9.22386 3.22386 9 3.5 9H12.5C12.7761 9 13 9.22386 13 9.5C13 9.77614 12.7761 10 12.5 10H3.5C3.22386 10 3 9.77614 3 9.5Z"/>
  </symbol>
  <symbol id="package-add">
    <path fill-rule="evenodd" clip-rule="evenodd" d="M7.84168 13.9398C7.59843 14.0283 7.33036 14.0189 7.09384 13.9138L2.59386 11.9138C2.23273 11.7533 2 11.3952 2 11V4.99999C2 4.57946 2.26309 4.20387 2.65831 4.06018L8.14901 2.0639C8.39226 1.97546 8.66032 1.98478 8.89684 2.0899L13.4061 4.09403C13.7673 4.25453 14 4.61265 14 5.00784V10.5C14 9.84689 13.5826 9.29127 13 9.08535V5.66037L12 6.02395V8.02396C12 8.57113 11.5523 9.18678 11 9.38754L10 9.75111C9.4477 9.95113 9 9.66343 9 9.11469V7.11468L8 7.47824V12.8182L9.00068 12.4544C9.00023 12.4695 9 12.4847 9 12.5C9 12.8411 9.11384 13.1556 9.30559 13.4075L7.84168 13.9398ZM3 5.69028L7 7.46806V12.7778L3 11V5.69028ZM3.50002 4.8182L7.50002 6.59597L8.4907 6.23579L4.5 4.45464L3.50002 4.8182ZM12.4907 4.78149L8.4907 3.00371L7.49535 3.3656L11.5026 5.14075L12.4907 4.78149ZM10 6.7511V8.75111L11 8.38754V6.38753C11 5.99234 10.7673 5.63422 10.4061 5.47372L6.5 3.72748L5.5 4.09106L9.4061 5.83729C9.7673 5.99779 10 6.35591 10 6.7511Z"/>
    <path d="M13 10.5C13 10.2239 12.7761 10 12.5 10C12.2239 10 12 10.2239 12 10.5V12H10.5C10.2239 12 10 12.2239 10 12.5C10 12.7761 10.2239 13 10.5 13H12V14.5C12 14.7761 12.2239 15 12.5 15C12.7761 15 13 14.7761 13 14.5V13H14.5C14.7761 13 15 12.7761 15 12.5C15 12.2239 14.7761 12 14.5 12H13V10.5Z"/>
  </symbol>
  <symbol id="package">
    <path fill-rule="evenodd" clip-rule="evenodd" d="M7.84168 13.9398C7.59843 14.0283 7.33036 14.0189 7.09384 13.9138L2.59386 11.9138C2.23273 11.7533 2 11.3952 2 11V4.99999C2 4.57946 2.26309 4.20387 2.65831 4.06018L8.14901 2.0639C8.39226 1.97546 8.66032 1.98478 8.89684 2.0899L13.4061 4.09403C13.7673 4.25453 14 4.61265 14 5.00784V11.0003C14 11.4209 13.7369 11.7965 13.3417 11.9401L7.84168 13.9398ZM3 5.69028L7 7.46806V12.7778L3 11V5.69028ZM9 9.11468V7.11468L8 7.47824V12.8182L13 11.0003V5.66037L12 6.02395V8.02396C12 8.57113 11.5523 9.18678 11 9.38754L10 9.75111C9.4477 9.95113 9 9.66343 9 9.11468ZM3.50002 4.8182L7.50002 6.59597L8.4907 6.23579L4.5 4.45464L3.50002 4.8182ZM12.4907 4.78149L8.4907 3.00371L7.49535 3.3656L11.5026 5.14075L12.4907 4.78149ZM10 6.7511V8.75111L11 8.38754V6.38753C11 5.99234 10.7673 5.63422 10.4061 5.47372L6.5 3.72748L5.5 4.09106L9.4061 5.83729C9.7673 5.99779 10 6.35591 10 6.7511Z"/>
  </symbol>
  <symbol id="plus">
    <path d="M8 13C7.72386 13 7.5 12.7761 7.5 12.5L7.5 8.5L3.5 8.5C3.22386 8.5 3 8.27614 3 8C3 7.72386 3.22386 7.5 3.5 7.5L7.5 7.5L7.5 3.5C7.5 3.22386 7.72386 3 8 3C8.27614 3 8.5 3.22386 8.5 3.5L8.5 7.5L12.5 7.5C12.7761 7.5 13 7.72386 13 8C13 8.27614 12.7761 8.5 12.5 8.5L8.5 8.5L8.5 12.5C8.5 12.7761 8.27614 13 8 13Z"/>
  </symbol>
  <symbol id="refresh">
    <path fill-rule="evenodd" clip-rule="evenodd" d="M3 8C3 10.7614 5.23858 13 8 13C8.27614 13 8.5 12.7761 8.5 12.5C8.5 12.2239 8.27614 12 8 12C5.79086 12 4 10.2091 4 8C4 5.79086 5.79086 4 8 4C9.88826 4 11.4709 5.30839 11.8909 7.06804L11.1774 6.56217C10.9522 6.40244 10.6401 6.45557 10.4803 6.68083C10.3206 6.90609 10.3737 7.21818 10.599 7.37791L12.3295 8.60492C12.5547 8.76464 12.8668 8.71152 13.0265 8.48626L14.2535 6.75581C14.4133 6.53055 14.3601 6.21846 14.1349 6.05873C13.9096 5.89901 13.5975 5.95213 13.4378 6.17739L12.8897 6.95044C12.4074 4.69294 10.4014 3 8 3C5.23858 3 3 5.23858 3 8Z"/>
  </symbol>
  <symbol id="right">
    <path fill-rule="evenodd" clip-rule="evenodd" d="M12.7071 8.70711L9.70711 11.7071C9.31658 12.0976 8.68342 12.0976 8.29289 11.7071C8.09764 11.5119 8.00001 11.2559 8 11V10L4 10C3.44772 10 3 9.55231 3 9.00003L3 7.00003C3 6.44774 3.44772 6.00003 4 6.00003L7.99999 5.99998L8 4.99999C8.00001 4.74407 8.09764 4.48816 8.2929 4.29291C8.68342 3.90238 9.31658 3.90238 9.70711 4.29291L12.7071 7.2929C13.0976 7.68342 13.0976 8.31659 12.7071 8.70711ZM4 9.00003L8.99999 8.99998L8.99999 11L12 7.99998L8.99999 4.99999L8.99999 6.99998L3.99999 6.99998L4 9.00003Z"/>
  </symbol>
  <symbol id="save">
    <path fill-rule="evenodd" clip-rule="evenodd" d="M5 3C3.89543 3 3 3.89543 3 5V11C3 12.1046 3.89543 13 5 13H11C12.1046 13 13 12.1046 13 11V6.5C13 5.94772 12.7761 5.44772 12.4142 5.08579L10.9142 3.58579C10.5522 3.22386 10.0522 3 9.49996 3L5 3ZM9 9C9.55228 9 10 9.44772 10 10V12H6.00004V10C6.00004 9.44772 6.44776 9 7.00004 9H9ZM6 4V6H9V4H6ZM4.00004 5L3.99996 11C3.99996 11.5523 4.44767 12 4.99996 12L5 10C5 8.89543 5.89543 8 7 8H9.00004C10.1046 8 11 8.89543 11 10L11 12C11.5522 12 12 11.5523 12 11L12 6.5C12 6.22385 11.8881 5.97384 11.7071 5.79287L10.2071 4.29287C10.1455 4.23128 10.0759 4.17769 10 4.13378V6C10 6.55228 9.55228 7 9 7H6C5.44772 7 5 6.55228 5 6L5.00004 4C4.44778 4.00002 4.00004 4.44773 4.00004 5Z"/>
  </symbol>
  <symbol id="search">
    <path fill-rule="evenodd" clip-rule="evenodd" d="M7 11C4.79086 11 3 9.20914 3 7C3 4.79086 4.79086 3 7 3C9.20914 3 11 4.79086 11 7C11 7.92436 10.6865 8.77549 10.1599 9.45283L12.8536 12.1464C13.0488 12.3417 13.0488 12.6583 12.8536 12.8535C12.6583 13.0488 12.3417 13.0488 12.1465 12.8535L9.45281 10.1599C8.77547 10.6865 7.92435 11 7 11ZM7 10C8.65685 10 10 8.65685 10 7C10 5.34315 8.65685 4 7 4C5.34315 4 4 5.34315 4 7C4 8.65685 5.34315 10 7 10Z"/>
  </symbol>
  <symbol id="up">
    <path fill-rule="evenodd" clip-rule="evenodd" d="M8.70711 3.29289L11.7071 6.29289C12.0976 6.68341 12.0976 7.31658 11.7071 7.7071C11.5119 7.90236 11.2559 7.99999 11 7.99999H10V12C10 12.5523 9.55231 13 9.00003 13H7.00003C6.44774 13 6.00003 12.5523 6.00003 12L5.99998 8.00001L4.99999 7.99999C4.74407 7.99999 4.48816 7.90236 4.29291 7.7071C3.90238 7.31658 3.90238 6.68341 4.29291 6.29289L7.2929 3.29289C7.68342 2.90237 8.31659 2.90237 8.70711 3.29289ZM9.00003 12L8.99998 7.00001H11L7.99998 4.00001L4.99999 7.00001L6.99998 7.00001L6.99998 12L9.00003 12Z"/>
  </symbol>
  <symbol id="upload">
    <path d="M14 13C14 13.5523 13.5523 14 13 14H3C2.44771 14 2 13.5523 2 13V11.5C2 11.2239 2.22386 11 2.5 11C2.77614 11 3 11.2239 3 11.5V13L13 13V11.5C13 11.2239 13.2239 11 13.5 11C13.7761 11 14 11.2239 14 11.5L14 13Z"/>
    <path fill-rule="evenodd" clip-rule="evenodd" d="M8.70711 2.2929L11.7071 5.29289C12.0976 5.68342 12.0976 6.31658 11.7071 6.70711C11.5119 6.90236 11.2559 6.99999 11 7H10V11C10 11.5523 9.55231 12 9.00003 12H7.00003C6.44774 12 6.00003 11.5523 6.00003 11L5.99998 7.00001L4.99999 7C4.74407 6.99999 4.48816 6.90236 4.29291 6.70711C3.90238 6.31658 3.90238 5.68342 4.29291 5.29289L7.2929 2.2929C7.68342 1.90237 8.31659 1.90237 8.70711 2.2929ZM9.00003 11L8.99998 6.00001H11L7.99998 3.00002L4.99999 6.00001H6.99998V11L9.00003 11Z"/>
  </symbol>
  <symbol id="user">
    <path d="M3 12C3 10.8954 3.89543 10 5 10H11C12.1046 10 13 10.8954 13 12V13L12 13V12C12 11.4477 11.5523 11 11 11H5.00004C4.44776 11 4.00004 11.4477 4.00004 12L4.00004 13L3 13V12Z"/>
    <path fill-rule="evenodd" clip-rule="evenodd" d="M9 9H7C5.89543 9 5 8.10457 5 7V5C5 3.89543 5.89543 3 7 3H9C10.1046 3 11 3.89543 11 5L11 7C11 8.10457 10.1046 9 9 9ZM6.00004 5C6.00004 4.44772 6.44776 4 7.00004 4H9C9.55228 4 10 4.44772 10 5V7C10 7.55228 9.55228 8 9 8H7.00004C6.44776 8 6.00004 7.55228 6.00004 7L6.00004 5Z"/>
  </symbol>
  <symbol id="users">
    <path d="M2 12C2 10.8954 2.89543 10 4 10H10C11.1046 10 12 10.8954 12 12V13L11 13V12C11 11.4477 10.5523 11 10 11H4.00004C3.44776 11 3.00004 11.4477 3.00004 12L3.00004 13L2 13V12Z"/>
    <path fill-rule="evenodd" clip-rule="evenodd" d="M8 9H6C4.89543 9 4 8.10457 4 7V5C4 3.89543 4.89543 3 6 3H8C9.10457 3 10 3.89543 10 5L10 7C10 8.10457 9.10457 9 8 9ZM5.00004 5C5.00004 4.44772 5.44776 4 6.00004 4H8C8.55228 4 9 4.44772 9 5V7C9 7.55228 8.55228 8 8 8H6.00004C5.44776 8 5.00004 7.55228 5.00004 7L5.00004 5Z"/>
    <path d="M13 7L13 5C13 3.89543 12.1046 3 11 3H10.2361C10.4944 3.28855 10.6976 3.62738 10.8293 4H11C11.5523 4 12 4.44772 12 5V7C12 7.55228 11.5523 8 11 8H10.8293C10.6976 8.37262 10.4944 8.71145 10.2361 9H11C12.1046 9 13 8.10457 13 7Z"/>
    <path d="M13 10C14.1046 10 15 10.8954 15 12V13L14 13V12C14 11.4477 13.5523 11 13 11H12.8293C12.6976 10.6274 12.4944 10.2885 12.2361 10H13Z"/>
  </symbol>
</svg>
