<svg width="16" height="16" viewBox="0 0 16 16" fill="none" xmlns="http://www.w3.org/2000/svg">
  <symbol id="discord">
    <path d="M13.5535 3.01557C12.5023 2.5343 11.3926 2.19287 10.2526 2C10.0966 2.27886 9.95549 2.56577 9.82978 2.85953C8.61551 2.67655 7.38069 2.67655 6.16642 2.85953C6.04065 2.5658 5.8995 2.27889 5.74358 2C4.6029 2.1945 3.49241 2.53674 2.44013 3.01809C0.351097 6.10886 -0.215208 9.12286 0.0679445 12.0941C1.29134 12.998 2.66066 13.6854 4.11639 14.1265C4.44418 13.6856 4.73423 13.2179 4.98347 12.7283C4.51008 12.5515 4.05318 12.3334 3.61805 12.0765C3.73257 11.9934 3.84457 11.9078 3.9528 11.8248C5.21892 12.4202 6.60084 12.7289 7.99999 12.7289C9.39914 12.7289 10.7811 12.4202 12.0472 11.8248C12.1567 11.9141 12.2687 11.9997 12.3819 12.0765C11.946 12.3338 11.4882 12.5524 11.014 12.7296C11.2629 13.2189 11.553 13.6863 11.8811 14.1265C13.338 13.6872 14.7084 13.0001 15.932 12.0953C16.2643 8.64968 15.3645 5.66336 13.5535 3.01557ZM5.34213 10.2668C4.55308 10.2668 3.9012 9.55073 3.9012 8.66981C3.9012 7.78889 4.53043 7.06654 5.33961 7.06654C6.1488 7.06654 6.79565 7.78889 6.7818 8.66981C6.76796 9.55073 6.14628 10.2668 5.34213 10.2668ZM10.6578 10.2668C9.86754 10.2668 9.21817 9.55073 9.21817 8.66981C9.21817 7.78889 9.8474 7.06654 10.6578 7.06654C11.4683 7.06654 12.1101 7.78889 12.0963 8.66981C12.0824 9.55073 11.462 10.2668 10.6578 10.2668Z" fill="currentColor" />
  </symbol>
</svg>