<svg width="16" height="16" viewBox="0 0 16 16" fill="none" xmlns="http://www.w3.org/2000/svg">
  <symbol id="ru">
    <path fill-rule="evenodd" clip-rule="evenodd" d="M6 15H7V13H7.87689L8.88104 15H10L8.89096 12.7911C9.54838 12.4634 10 11.7844 10 11C10 9.89543 9.10457 9 8 9H6V15ZM9 11C9 11.5523 8.55228 12 8 12H7V10H8C8.55228 10 9 10.4477 9 11Z" fill="currentColor"/>
    <path fill-rule="evenodd" clip-rule="evenodd" d="M12 11.5C12 11.2239 11.7761 11 11.5 11V11C11.2239 11 11 11.2239 11 11.5V13C11 14.1046 11.8954 15 13 15C14.1046 15 15 14.1046 15 13V11.5C15 11.2239 14.7761 11 14.5 11V11C14.2239 11 14 11.2239 14 11.5V13C14 13.5523 13.5523 14 13 14C12.4477 14 12 13.5523 12 13V11.5Z" fill="currentColor"/>
    <path d="M1.5 3C1.22386 3 1 2.77614 1 2.5C1 2.22386 1.22386 2 1.5 2H4V1.5C4 1.22386 4.22386 1 4.5 1C4.77614 1 5 1.22386 5 1.5V2H7.5C7.77614 2 8 2.22386 8 2.5C8 2.77614 7.77614 3 7.5 3H7H1.5Z" fill="currentColor"/>
    <path d="M6.5 3C6.5 3.59095 6.3836 4.17611 6.15746 4.72208C5.93131 5.26804 5.59984 5.76412 5.18198 6.18198C4.76412 6.59984 4.26804 6.93131 3.72208 7.15746C3.17611 7.3836 2.59095 7.5 2 7.5" stroke="currentColor" stroke-linecap="round"/>
    <path d="M2.75649 4.49753C3.06631 5.37548 3.64083 6.13573 4.40085 6.67348C5.16087 7.21123 6.06898 7.5 7 7.5" stroke="currentColor" stroke-linecap="round"/>
  </symbol>
  <symbol id="en">
    <path d="M1.5 3C1.22386 3 1 2.77614 1 2.5C1 2.22386 1.22386 2 1.5 2H4V1.5C4 1.22386 4.22386 1 4.5 1C4.77614 1 5 1.22386 5 1.5V2H7.5C7.77614 2 8 2.22386 8 2.5C8 2.77614 7.77614 3 7.5 3H7H1.5Z" fill="currentColor"/>
    <path d="M6.5 3C6.5 3.59095 6.3836 4.17611 6.15746 4.72208C5.93131 5.26804 5.59984 5.76412 5.18198 6.18198C4.76412 6.59984 4.26804 6.93131 3.72208 7.15746C3.17611 7.3836 2.59095 7.5 2 7.5" stroke="currentColor" stroke-linecap="round"/>
    <path d="M2.75649 4.49753C3.06631 5.37548 3.64083 6.13573 4.40085 6.67348C5.16087 7.21123 6.06898 7.5 7 7.5" stroke="currentColor" stroke-linecap="round"/>
    <path d="M10 14.5C10 14.7761 9.77614 15 9.5 15H6V9H9.5C9.77614 9 10 9.22386 10 9.5V9.5C10 9.77614 9.77614 10 9.5 10H7V11.5H8.5C8.77614 11.5 9 11.7239 9 12V12C9 12.2761 8.77614 12.5 8.5 12.5H7V14H9.5C9.77614 14 10 14.2239 10 14.5V14.5Z" fill="currentColor"/>
    <path d="M14 15V13C14 12.4477 13.5523 12 13 12C12.4477 12 12 12.4477 12 13V15H11V13V11.5C11 11.2239 11.2239 11 11.5 11C11.7027 11 11.8772 11.1206 11.9557 11.294C12.2597 11.1075 12.6173 11 13 11C14.1046 11 15 11.8954 15 13V15H14Z" fill="currentColor"/>
  </symbol>
</svg>