<svg width="130" height="16" viewBox="0 0 130 16" fill="none" xmlns="http://www.w3.org/2000/svg">
  <path d="M114 -0.000427246H118V15.9996H114V-0.000427246Z" fill="white"/>
  <path d="M124 1.99957C124 3.10414 123.105 3.99957 122 3.99957C120.895 3.99957 120 3.10414 120 1.99957C120 0.895003 120.895 -0.000427246 122 -0.000427246C123.105 -0.000427246 124 0.895003 124 1.99957Z" fill="white"/>
  <path d="M130 1.99957C130 3.10414 129.105 3.99957 128 3.99957C126.895 3.99957 126 3.10414 126 1.99957C126 0.895003 126.895 -0.000427246 128 -0.000427246C129.105 -0.000427246 130 0.895003 130 1.99957Z" fill="white"/>
  <path d="M130 7.99957C130 9.10414 129.105 9.99957 128 9.99957C126.895 9.99957 126 9.10414 126 7.99957C126 6.895 126.895 5.99957 128 5.99957C129.105 5.99957 130 6.895 130 7.99957Z" fill="white"/>
  <path d="M124 7.99957C124 9.10414 123.105 9.99957 122 9.99957C120.895 9.99957 120 9.10414 120 7.99957C120 6.895 120.895 5.99957 122 5.99957C123.105 5.99957 124 6.895 124 7.99957Z" fill="white"/>
  <path d="M124 13.9996C124 15.1041 123.105 15.9996 122 15.9996C120.895 15.9996 120 15.1041 120 13.9996C120 12.895 120.895 11.9996 122 11.9996C123.105 11.9996 124 12.895 124 13.9996Z" fill="white"/>
  <path d="M130 13.9996C130 15.1041 129.105 15.9996 128 15.9996C126.895 15.9996 126 15.1041 126 13.9996C126 12.895 126.895 11.9996 128 11.9996C129.105 11.9996 130 12.895 130 13.9996Z" fill="white"/>
  <path d="M96 -0.000427246H100V7.99957C100 10.2087 101.791 11.9996 104 11.9996C106.209 11.9996 108 10.2087 108 7.99957V-0.000427246H112V7.99957C112 12.4179 108.418 15.9996 104 15.9996C99.5817 15.9996 96 12.4179 96 7.99957V-0.000427246Z" fill="white"/>
  <path fill-rule="evenodd" clip-rule="evenodd" d="M76 -0.000427246H72V15.9996H76V7.99953L77.6906 10.9278C78.717 12.7056 81.283 12.7056 82.3094 10.9278L84 7.9996V15.9996H88V-0.000427246H84L80 6.92778L76 -0.000427246Z" fill="white"/>
  <path d="M54 -0.000427246H58V7.99957C58 10.2087 59.7909 11.9996 62 11.9996C64.2091 11.9996 66 10.2087 66 7.99957V-0.000427246H70V7.99957C70 12.4179 66.4183 15.9996 62 15.9996C57.5817 15.9996 54 12.4179 54 7.99957V-0.000427246Z" fill="white"/>
  <path fill-rule="evenodd" clip-rule="evenodd" d="M52 5.99957C52 2.68586 49.3137 -0.000427246 46 -0.000427246H42C38.6863 -0.000427246 36 2.68586 36 5.99957V9.99957C36 13.3133 38.6863 15.9996 42 15.9996H46C47.6569 15.9996 49.1569 15.328 50.2426 14.2422L47.4142 11.4138C47.0523 11.7757 46.5523 11.9996 46 11.9996H42C40.8954 11.9996 40 11.1041 40 9.99957H48C50.2091 9.99957 52 8.20871 52 5.99957ZM46 3.99957C47.1046 3.99957 48 4.895 48 5.99957H40C40 4.895 40.8954 3.99957 42 3.99957H46Z" fill="white"/>
  <path fill-rule="evenodd" clip-rule="evenodd" d="M28 -0.000427246C31.3137 -0.000427246 34 2.68586 34 5.99957C34 8.15006 32.8687 10.0363 31.1687 11.0956L34 15.9996H29.3812L27.0718 11.9996H22V15.9996H18V-0.000427246H28ZM28 7.99957C29.1046 7.99957 30 7.10414 30 5.99957C30 4.895 29.1046 3.99957 28 3.99957H22V7.99957H28Z" fill="white"/>
  <path d="M16 7.99957C16 12.4179 12.4183 15.9996 8 15.9996C3.58172 15.9996 0 12.4179 0 7.99957V5.99957H4V7.99957C4 10.2087 5.79086 11.9996 8 11.9996C10.2091 11.9996 12 10.2087 12 7.99957C12 5.79043 10.2091 3.99957 8 3.99957H0V-0.000427246H8C12.4183 -0.000427246 16 3.58129 16 7.99957Z" fill="white"/>
</svg>
