<svg width="52" height="16" viewBox="0 0 52 16" fill="none" xmlns="http://www.w3.org/2000/svg">
  <path d="M36 0H40V16H36V0Z" fill="white"/>
  <path d="M46 2C46 3.10457 45.1046 4 44 4C42.8954 4 42 3.10457 42 2C42 0.89543 42.8954 0 44 0C45.1046 0 46 0.89543 46 2Z" fill="white"/>
  <path d="M52 2C52 3.10457 51.1046 4 50 4C48.8954 4 48 3.10457 48 2C48 0.89543 48.8954 0 50 0C51.1046 0 52 0.89543 52 2Z" fill="white"/>
  <path d="M52 8C52 9.10457 51.1046 10 50 10C48.8954 10 48 9.10457 48 8C48 6.89543 48.8954 6 50 6C51.1046 6 52 6.89543 52 8Z" fill="white"/>
  <path d="M46 8C46 9.10457 45.1046 10 44 10C42.8954 10 42 9.10457 42 8C42 6.89543 42.8954 6 44 6C45.1046 6 46 6.89543 46 8Z" fill="white"/>
  <path d="M46 14C46 15.1046 45.1046 16 44 16C42.8954 16 42 15.1046 42 14C42 12.8954 42.8954 12 44 12C45.1046 12 46 12.8954 46 14Z" fill="white"/>
  <path d="M52 14C52 15.1046 51.1046 16 50 16C48.8954 16 48 15.1046 48 14C48 12.8954 48.8954 12 50 12C51.1046 12 52 12.8954 52 14Z" fill="white"/>
  <path d="M18 0H22V8C22 10.2091 23.7909 12 26 12C28.2091 12 30 10.2091 30 8V0H34V8C34 12.4183 30.4183 16 26 16C21.5817 16 18 12.4183 18 8V0Z" fill="white"/>
  <path d="M16 7.99957C16 12.4179 12.4183 15.9996 8 15.9996C3.58172 15.9996 0 12.4179 0 7.99957V5.99957H4V7.99957C4 10.2087 5.79086 11.9996 8 11.9996C10.2091 11.9996 12 10.2087 12 7.99957C12 5.79043 10.2091 3.99957 8 3.99957H0V-0.000427246H8C12.4183 -0.000427246 16 3.58129 16 7.99957Z" fill="white"/>
</svg>
