<svg width="16" height="16" viewBox="0 0 16 16" fill="none" xmlns="http://www.w3.org/2000/svg">
  <symbol id="dark">
    <path d="M13.4113 8.93476C13.0083 9.40328 12.513 9.78375 11.9564 10.0524C11.3999 10.3212 10.7939 10.4723 10.1763 10.4965C9.55878 10.5208 8.94285 10.4175 8.36694 10.1932C7.79104 9.96894 7.2675 9.62842 6.82898 9.19291C6.39046 8.75739 6.04635 8.23621 5.81811 7.66186C5.58987 7.08751 5.48238 6.47231 5.50235 5.85459C5.52232 5.23687 5.66932 4.62989 5.93419 4.07148C6.19906 3.51307 6.57611 3.01521 7.04185 2.60893" stroke="currentColor" stroke-linecap="round"/>
    <path d="M13.4215 8.92616C13.2516 9.92048 12.8116 10.8489 12.1495 11.61C11.4874 12.371 10.6288 12.9353 9.66752 13.2411C8.70627 13.547 7.67944 13.5825 6.69932 13.344C5.71921 13.1054 4.82358 12.6019 4.1104 11.8886C3.39722 11.1752 2.89396 10.2794 2.65567 9.29927C2.41737 8.31909 2.45323 7.29227 2.75932 6.3311C3.0654 5.36994 3.62992 4.51146 4.39112 3.84958C5.15233 3.18769 6.0809 2.7479 7.07526 2.5783" stroke="currentColor" stroke-linecap="round"/>
  </symbol>
  <symbol id="light">
    <path d="M11.5 8C11.5 8.45963 11.4095 8.91475 11.2336 9.33939C11.0577 9.76403 10.7999 10.1499 10.4749 10.4749C10.1499 10.7999 9.76403 11.0577 9.33939 11.2336C8.91475 11.4095 8.45963 11.5 8 11.5C7.54037 11.5 7.08525 11.4095 6.66061 11.2336C6.23597 11.0577 5.85013 10.7999 5.52513 10.4749C5.20012 10.1499 4.94231 9.76403 4.76642 9.33939C4.59053 8.91475 4.5 8.45963 4.5 8C4.5 7.54037 4.59053 7.08525 4.76642 6.66061C4.94231 6.23597 5.20012 5.85013 5.52513 5.52513C5.85013 5.20012 6.23597 4.94231 6.66061 4.76642C7.08525 4.59053 7.54037 4.5 8 4.5C8.45963 4.5 8.91475 4.59053 9.33939 4.76642C9.76403 4.94231 10.1499 5.20012 10.4749 5.52513C10.7999 5.85013 11.0577 6.23597 11.2336 6.66061C11.4095 7.08525 11.5 7.54037 11.5 8L11.5 8Z" stroke="currentColor" stroke-linecap="round"/>
    <path d="M7.5 1.5C7.5 1.22386 7.72386 1 8 1C8.27614 1 8.5 1.22386 8.5 1.5V2.5C8.5 2.77614 8.27614 3 8 3C7.72386 3 7.5 2.77614 7.5 2.5V1.5Z" fill="currentColor"/>
    <path d="M7.5 13.5C7.5 13.2239 7.72386 13 8 13C8.27614 13 8.5 13.2239 8.5 13.5V14.5C8.5 14.7761 8.27614 15 8 15C7.72386 15 7.5 14.7761 7.5 14.5V13.5Z" fill="currentColor"/>
    <path d="M1.5 8.5C1.22386 8.5 1 8.27614 1 8C1 7.72386 1.22386 7.5 1.5 7.5L2.5 7.5C2.77614 7.5 3 7.72386 3 8C3 8.27614 2.77614 8.5 2.5 8.5L1.5 8.5Z" fill="currentColor"/>
    <path d="M13.5 8.5C13.2239 8.5 13 8.27614 13 8C13 7.72386 13.2239 7.5 13.5 7.5L14.5 7.5C14.7761 7.5 15 7.72386 15 8C15 8.27614 14.7761 8.5 14.5 8.5L13.5 8.5Z" fill="currentColor"/>
    <path d="M3.05024 3.75736C2.85498 3.5621 2.85498 3.24552 3.05024 3.05026C3.2455 2.85499 3.56208 2.85499 3.75735 3.05026L4.46445 3.75736C4.65971 3.95262 4.65971 4.26921 4.46445 4.46447C4.26919 4.65973 3.95261 4.65973 3.75735 4.46447L3.05024 3.75736Z" fill="currentColor"/>
    <path d="M11.5355 12.2426C11.3403 12.0474 11.3403 11.7308 11.5355 11.5355C11.7308 11.3403 12.0474 11.3403 12.2426 11.5355L12.9497 12.2426C13.145 12.4379 13.145 12.7545 12.9497 12.9497C12.7545 13.145 12.4379 13.145 12.2426 12.9497L11.5355 12.2426Z" fill="currentColor"/>
    <path d="M3.75736 12.9497C3.5621 13.145 3.24552 13.145 3.05026 12.9497C2.85499 12.7545 2.85499 12.4379 3.05026 12.2426L3.75736 11.5355C3.95262 11.3403 4.26921 11.3403 4.46447 11.5355C4.65973 11.7308 4.65973 12.0474 4.46447 12.2426L3.75736 12.9497Z" fill="currentColor"/>
    <path d="M12.2427 4.46447C12.0474 4.65973 11.7308 4.65973 11.5355 4.46447C11.3403 4.26921 11.3403 3.95263 11.5355 3.75736L12.2427 3.05026C12.4379 2.85499 12.7545 2.85499 12.9498 3.05026C13.145 3.24552 13.145 3.5621 12.9498 3.75736L12.2427 4.46447Z" fill="currentColor"/>
  </symbol>
</svg>