<svg width="16" height="16" viewBox="0 0 16 16" fill="none" xmlns="http://www.w3.org/2000/svg">
<path fill-rule="evenodd" clip-rule="evenodd" d="M2.29289 8.71206C1.90237 8.32153 1.90237 7.68837 2.29289 7.29784C6.69007 2.9007 9.31006 2.90073 13.7071 7.29784C14.0977 7.68837 14.0977 8.32153 13.7071 8.71206C9.31356 13.1056 6.69043 13.1096 2.29289 8.71206ZM8.00005 5C6.67812 5 5.17733 5.82765 3 8.00495C5.17716 10.1821 6.67883 11.0091 8.00122 11.0087C9.32381 11.0083 10.8246 10.1803 13 8.00495C10.8228 5.82765 9.32198 5 8.00005 5Z" fill="white"/>
<path d="M10 8C10 9.10457 9.10457 10 8 10C6.89543 10 6 9.10457 6 8C6 6.89543 6.89543 6 8 6C9.10457 6 10 6.89543 10 8ZM7 8C7 8.55228 7.44772 9 8 9C8.55228 9 9 8.55228 9 8C9 7.44772 8.55228 7 8 7C7.44772 7 7 7.44772 7 8Z" fill="white"/>
</svg>
