<svg width="16" height="16" viewBox="0 0 16 16" fill="none" xmlns="http://www.w3.org/2000/svg">
<path fill-rule="evenodd" clip-rule="evenodd" d="M12 13H4C3.44772 13 3 12.5523 3 12V4C3 3.44772 3.44772 3 4 3H9.46446L8.46445 4H4.00004L4.00004 12H12V7.53569L13 6.53568L13 12C13 12.5523 12.5523 13 12 13Z" fill="white"/>
<path fill-rule="evenodd" clip-rule="evenodd" d="M7.41424 10.7071L13.7072 4.41424C14.0978 4.02372 14.0977 3.39052 13.7072 3L13.0001 2.29289C12.6096 1.90237 11.9764 1.90237 11.5859 2.29289L5.29292 8.5858C5.09765 8.78107 5.00002 9.03701 5.00003 9.29294V10V11H6.00003H6.70713C6.96306 11 7.21898 10.9024 7.41424 10.7071ZM13.0001 3.70711L12.293 3.00003L11.5859 3.70714L12.293 4.41421L13.0001 3.70711ZM6.00006 9.29294L6.00003 10H6.70713L11.5859 5.12132L10.8788 4.41421L6.00006 9.29294Z" fill="white"/>
</svg>
