<svg width="16" height="16" viewBox="0 0 16 16" fill="none" xmlns="http://www.w3.org/2000/svg">
<path d="M4.85369 11.8535C4.65843 12.0488 4.3418 12.0488 4.14658 11.8535C3.95137 11.6583 3.95132 11.3417 4.14658 11.1464L11.1465 4.14653C11.3418 3.95127 11.6584 3.95131 11.8536 4.14653C12.0488 4.34175 12.0489 4.65837 11.8536 4.85364L4.85369 11.8535Z" fill="white"/>
<path d="M4.85369 11.8535C4.65843 12.0488 4.3418 12.0488 4.14658 11.8535C3.95137 11.6583 3.95132 11.3417 4.14658 11.1464L11.1465 4.14653C11.3418 3.95127 11.6584 3.95131 11.8536 4.14653C12.0488 4.34175 12.0489 4.65837 11.8536 4.85364L4.85369 11.8535Z" fill="white"/>
<path d="M7.67215 11.8537C7.47689 12.0489 7.16027 12.0489 6.96505 11.8537C6.76983 11.6585 6.76978 11.3418 6.96505 11.1466L11.1465 6.96512C11.3418 6.76986 11.6584 6.7699 11.8536 6.96512C12.0488 7.16034 12.0489 7.47696 11.8536 7.67223L7.67215 11.8537Z" fill="white"/>
<path d="M7.67215 11.8537C7.47689 12.0489 7.16027 12.0489 6.96505 11.8537C6.76983 11.6585 6.76978 11.3418 6.96505 11.1466L11.1465 6.96512C11.3418 6.76986 11.6584 6.7699 11.8536 6.96512C12.0488 7.16034 12.0489 7.47696 11.8536 7.67223L7.67215 11.8537Z" fill="white"/>
<path d="M10.4922 11.8537C10.2969 12.0489 9.98027 12.0489 9.78505 11.8537C9.58983 11.6585 9.58978 11.3418 9.78505 11.1466L11.1465 9.78512C11.3418 9.58986 11.6584 9.58991 11.8536 9.78512C12.0489 9.98034 12.0489 10.297 11.8536 10.4922L10.4922 11.8537Z" fill="white"/>
<path d="M10.4922 11.8537C10.2969 12.0489 9.98027 12.0489 9.78505 11.8537C9.58983 11.6585 9.58978 11.3418 9.78505 11.1466L11.1465 9.78512C11.3418 9.58986 11.6584 9.58991 11.8536 9.78512C12.0489 9.98034 12.0489 10.297 11.8536 10.4922L10.4922 11.8537Z" fill="white"/>
<path d="M4.85369 9.03775C4.65843 9.23301 4.3418 9.23296 4.14658 9.03775C3.95137 8.84253 3.95132 8.5259 4.14658 8.33064L8.33069 4.14652C8.52596 3.95125 8.84258 3.9513 9.0378 4.14652C9.23302 4.34173 9.23307 4.65836 9.0378 4.85362L4.85369 9.03775Z" fill="white"/>
<path d="M4.85369 9.03775C4.65843 9.23301 4.3418 9.23296 4.14658 9.03775C3.95137 8.84253 3.95132 8.5259 4.14658 8.33064L8.33069 4.14652C8.52596 3.95125 8.84258 3.9513 9.0378 4.14652C9.23302 4.34173 9.23307 4.65836 9.0378 4.85362L4.85369 9.03775Z" fill="white"/>
<path d="M4.86421 6.20716C4.66894 6.40242 4.35232 6.40238 4.1571 6.20716C3.96188 6.01194 3.96184 5.69532 4.1571 5.50005L5.51072 4.14652C5.70598 3.95126 6.02261 3.9513 6.21782 4.14652C6.41304 4.34174 6.41309 4.65836 6.21782 4.85363L4.86421 6.20716Z" fill="white"/>
<path d="M4.86421 6.20716C4.66894 6.40242 4.35232 6.40238 4.1571 6.20716C3.96188 6.01194 3.96184 5.69532 4.1571 5.50005L5.51072 4.14652C5.70598 3.95126 6.02261 3.9513 6.21782 4.14652C6.41304 4.34174 6.41309 4.65836 6.21782 4.85363L4.86421 6.20716Z" fill="white"/>
<path d="M2.5 5C2.22386 5 2 4.77614 2 4.5L2 3C2 2.44772 2.44771 2 3 2L4.5 2C4.77614 2 5 2.22386 5 2.5C5 2.77614 4.77614 3 4.5 3L3 3L3 4.5C3 4.77614 2.77614 5 2.5 5Z" fill="white"/>
<path d="M2.5 11C2.77614 11 3 11.2239 3 11.5L3 13L4.5 13C4.77614 13 5 13.2239 5 13.5C5 13.7761 4.77614 14 4.5 14L3 14C2.44771 14 2 13.5523 2 13L2 11.5C2 11.2239 2.22386 11 2.5 11Z" fill="white"/>
<path d="M13.5 11C13.7761 11 14 11.2239 14 11.5L14 13C14 13.5523 13.5523 14 13 14L11.5 14C11.2239 14 11 13.7761 11 13.5C11 13.2239 11.2239 13 11.5 13L13 13L13 11.5C13 11.2239 13.2239 11 13.5 11Z" fill="white"/>
<path d="M13.5 5C13.2239 5 13 4.77614 13 4.5L13 3L11.5 3C11.2239 3 11 2.77614 11 2.5C11 2.22386 11.2239 2 11.5 2L13 2C13.5523 2 14 2.44772 14 3L14 4.5C14 4.77614 13.7761 5 13.5 5Z" fill="white"/>
</svg>
