<svg width="16" height="16" viewBox="0 0 16 16" fill="none" xmlns="http://www.w3.org/2000/svg">
<path fill-rule="evenodd" clip-rule="evenodd" d="M6.6784 5.26409C7.14724 5.08255 7.58256 5 8.00005 5C9.32198 5 10.8228 5.82765 13 8.00495C12.3058 8.69921 11.6802 9.25624 11.1072 9.69292L11.8205 10.4062C12.417 9.94217 13.0417 9.37745 13.7071 8.71206C14.0977 8.32153 14.0977 7.68837 13.7071 7.29784C10.6497 4.24041 8.4515 3.30888 5.9176 4.50329L6.6784 5.26409Z" fill="white"/>
<path fill-rule="evenodd" clip-rule="evenodd" d="M2.29289 8.71206C1.90237 8.32153 1.90237 7.68837 2.29289 7.29784C2.96042 6.63033 3.58699 6.06414 4.18503 5.5993L3.75736 5.17162C3.5621 4.97636 3.5621 4.65978 3.75736 4.46452C3.95262 4.26926 4.2693 4.26921 4.46456 4.46447L11.5356 11.5355C11.7309 11.7308 11.7308 12.0474 11.5355 12.2427C11.3403 12.438 11.0237 12.438 10.8284 12.2427L10.0887 11.503C7.55312 12.7006 5.35247 11.7716 2.29289 8.71206ZM3 8.00495C5.17716 10.1821 6.67883 11.0091 8.00122 11.0087C8.42037 11.0086 8.85743 10.9254 9.32819 10.7424L8.518 9.93227C8.35279 9.97645 8.17914 10 8 10C6.89543 10 6 9.10457 6 8C6 7.82086 6.02355 7.64721 6.06773 7.482L4.8983 6.31256C4.32391 6.74995 3.69658 7.30838 3 8.00495Z" fill="white"/>
<path d="M8 6C9.10457 6 10 6.89543 10 8C10 8.17913 9.97645 8.35277 9.93228 8.51797L7.48203 6.06772C7.64723 6.02355 7.82087 6 8 6Z" fill="white"/>
</svg>
