<svg width="16" height="16" viewBox="0 0 16 16" fill="none" xmlns="http://www.w3.org/2000/svg">
<path fill-rule="evenodd" clip-rule="evenodd" d="M9.92036 2.31389C9.66528 2.50116 9.47416 2.77043 9.38585 3.08286C9.37606 3.1175 9.36501 3.15161 9.35274 3.18514C9.15096 3.73665 8.6215 4.13029 8.00009 4.13029C7.37867 4.13029 6.8492 3.73663 6.64743 3.18509C6.63517 3.15158 6.62412 3.11748 6.61433 3.08286C6.52602 2.77041 6.33487 2.50112 6.07977 2.31384C5.90492 2.37287 5.73368 2.43973 5.56647 2.51402C5.17629 2.68736 4.80802 2.9011 4.467 3.14995C4.31802 3.25866 4.17424 3.37407 4.03609 3.49573C4.07107 3.80961 4.20861 4.10905 4.43459 4.3413C4.45998 4.36739 4.48425 4.39433 4.50739 4.42205C4.88345 4.87252 4.9593 5.52734 4.64881 6.06512C4.33811 6.60327 3.73247 6.86499 3.15395 6.76397C3.11879 6.75783 3.08372 6.75035 3.04883 6.74151C2.73426 6.66181 2.40567 6.69262 2.11605 6.81974C2.08033 6.9988 2.05258 7.18074 2.03318 7.36518C2.01125 7.57378 2 7.78557 2 7.99999C2 8.21438 2.01124 8.42614 2.03318 8.63472C2.05257 8.81916 2.08032 9.00111 2.11604 9.18019C2.40565 9.3073 2.73423 9.3381 3.0488 9.2584C3.08369 9.24956 3.11876 9.24208 3.15393 9.23594C3.73245 9.13493 4.33808 9.39664 4.64878 9.93479C4.95927 10.4726 4.88342 11.1274 4.50734 11.5779C4.48421 11.6056 4.45994 11.6325 4.43456 11.6586C4.20857 11.8909 4.07102 12.1903 4.03606 12.5042C4.17419 12.6259 4.31796 12.7413 4.46693 12.85C4.80795 13.0988 5.17621 13.3126 5.56639 13.4859C5.73361 13.5602 5.90486 13.6271 6.07971 13.6861C6.33481 13.4989 6.52594 13.2296 6.61425 12.9171C6.62404 12.8825 6.6351 12.8484 6.64736 12.8149C6.84913 12.2633 7.3786 11.8697 8.00001 11.8697C8.62143 11.8697 9.1509 12.2633 9.35267 12.8149C9.36493 12.8484 9.37599 12.8825 9.38577 12.9171C9.47409 13.2296 9.66522 13.4988 9.92031 13.6861C10.0952 13.6271 10.2664 13.5602 10.4336 13.4859C10.8238 13.3126 11.192 13.0988 11.533 12.85C11.682 12.7413 11.8258 12.6259 11.964 12.5042C11.929 12.1903 11.7915 11.8909 11.5655 11.6587C11.5401 11.6326 11.5158 11.6056 11.4927 11.5779C11.1166 11.1274 11.0408 10.4726 11.3513 9.93489C11.662 9.39677 12.2676 9.13506 12.8461 9.23603C12.8813 9.24217 12.9163 9.24965 12.9513 9.2585C13.2658 9.33819 13.5943 9.30739 13.8839 9.18032C13.9197 9.00122 13.9474 8.81923 13.9668 8.63476C13.9888 8.42617 14 8.2144 14 7.99999C14 7.78562 13.9888 7.57387 13.9668 7.36531C13.9474 7.18082 13.9197 6.99882 13.8839 6.8197C13.5944 6.69264 13.2658 6.66187 12.9513 6.74155C12.9164 6.7504 12.8813 6.75789 12.8461 6.76403C12.2676 6.86498 11.662 6.60327 11.3513 6.06516C11.0409 5.5274 11.1167 4.87262 11.4927 4.42215C11.5159 4.39441 11.5402 4.36745 11.5656 4.34134C11.7915 4.10912 11.9291 3.80971 11.964 3.49586C11.8259 3.37418 11.6821 3.25875 11.5331 3.15002C11.1921 2.90119 10.8239 2.68745 10.4337 2.5141C10.2665 2.4398 10.0952 2.37292 9.92036 2.31389ZM8.00003 10C9.1046 10 10 9.10457 10 8C10 6.89543 9.1046 6 8.00003 6C6.89546 6 6.00003 6.89543 6.00003 8C6.00003 9.10457 6.89546 10 8.00003 10Z" fill="white"/>
<path d="M9.00003 8C9.00003 8.55228 8.55232 9 8.00003 9C7.44775 9 7.00003 8.55228 7.00003 8C7.00003 7.44772 7.44775 7 8.00003 7C8.55232 7 9.00003 7.44772 9.00003 8Z" fill="white"/>
</svg>
