<svg width="16" height="16" viewBox="0 0 16 16" fill="none" xmlns="http://www.w3.org/2000/svg">
<path fill-rule="evenodd" clip-rule="evenodd" d="M3 8C3 10.7614 5.23858 13 8 13C8.27614 13 8.5 12.7761 8.5 12.5C8.5 12.2239 8.27614 12 8 12C5.79086 12 4 10.2091 4 8C4 5.79086 5.79086 4 8 4C9.88826 4 11.4709 5.30839 11.8909 7.06804L11.1774 6.56217C10.9522 6.40244 10.6401 6.45557 10.4803 6.68083C10.3206 6.90609 10.3737 7.21818 10.599 7.37791L12.3295 8.60492C12.5547 8.76464 12.8668 8.71152 13.0265 8.48626L14.2535 6.75581C14.4133 6.53055 14.3601 6.21846 14.1349 6.05873C13.9096 5.89901 13.5975 5.95213 13.4378 6.17739L12.8897 6.95044C12.4074 4.69294 10.4014 3 8 3C5.23858 3 3 5.23858 3 8Z" fill="white"/>
</svg>
