<svg width="16" height="16" viewBox="0 0 16 16" fill="none" xmlns="http://www.w3.org/2000/svg">
<path d="M4.14639 4.14643C3.95112 4.34169 3.95112 4.65828 4.14639 4.85354L7.29288 7.99998L4.14643 11.1464C3.95117 11.3417 3.95117 11.6583 4.14643 11.8535C4.34169 12.0488 4.65828 12.0488 4.85354 11.8535L7.99999 8.70709L11.1464 11.8535C11.3417 12.0488 11.6583 12.0488 11.8535 11.8535C12.0475 11.6596 12.0488 11.346 11.8575 11.1504L8.70705 7.99998L11.8535 4.85354C12.0488 4.65828 12.0488 4.3417 11.8535 4.14643C11.6596 3.95253 11.346 3.95118 11.1505 4.14239L7.99999 7.29288L4.85349 4.14643C4.65823 3.95117 4.34165 3.95117 4.14639 4.14643Z" fill="white"/>
</svg>
