<svg width="16" height="16" viewBox="0 0 16 16" fill="none" xmlns="http://www.w3.org/2000/svg">
<path d="M6 7.5C6 7.22386 6.22386 7 6.5 7C6.77614 7 7 7.22386 7 7.5V11.5C7 11.7761 6.77614 12 6.5 12C6.22386 12 6 11.7761 6 11.5V7.5Z" fill="white"/>
<path d="M9 7.5C9 7.22386 9.22386 7 9.5 7C9.77614 7 10 7.22386 10 7.5V11.5C10 11.7761 9.77614 12 9.5 12C9.22386 12 9 11.7761 9 11.5V7.5Z" fill="white"/>
<path fill-rule="evenodd" clip-rule="evenodd" d="M7 7.5V11.5C7 11.7761 6.77614 12 6.5 12C6.22386 12 6 11.7761 6 11.5V7.5C6 7.22386 6.22386 7 6.5 7C6.77614 7 7 7.22386 7 7.5ZM10 7.5V11.5C10 11.7761 9.77614 12 9.5 12C9.22386 12 9 11.7761 9 11.5V7.5C9 7.22386 9.22386 7 9.5 7C9.77614 7 10 7.22386 10 7.5Z" fill="white"/>
<path fill-rule="evenodd" clip-rule="evenodd" d="M5 14H11C11.5523 14 12 13.5523 12 13V6C12.5523 6 13 5.55228 13 5V4C13 3.44772 12.5523 3 12 3H10C10 2.44772 9.55228 2 9 2H7C6.44772 2 6 2.44772 6 3H4C3.44772 3 3 3.44772 3 4V5C3 5.55228 3.44772 6 4 6V13C4 13.5523 4.44772 14 5 14ZM5.00004 13L5.00004 6L11 6L11 13H5.00004ZM4 5H12L12 4L4.00004 4L4 5Z" fill="white"/>
</svg>
