<svg width="16" height="16" viewBox="0 0 16 16" fill="none" xmlns="http://www.w3.org/2000/svg">
<path fill-rule="evenodd" clip-rule="evenodd" d="M4.99997 2.99999C4.99997 1.89542 5.8954 0.99999 6.99997 0.99999H8.99997C10.1045 0.99999 11 1.89542 11 2.99999H12C12.5523 2.99999 13 3.44771 13 3.99999V13C13 13.5523 12.5523 14 12 14H3.99997C3.44768 14 2.99997 13.5523 2.99997 13V3.99999C2.99997 3.44771 3.44768 2.99999 3.99997 2.99999H4.99997ZM12 13L4.00001 13V3.99999L5.00001 3.99999C5.00001 4.55228 5.44768 4.99999 5.99997 4.99999H9.99997C10.5523 4.99999 11 4.55228 11 3.99999L12 3.99999V13ZM6.00001 2.99999C6.00001 2.44771 6.44773 1.99999 7.00001 1.99999H9.00001C9.5523 1.99999 10 2.44771 10 2.99999V3.99999H6.00001V2.99999Z" fill="white"/>
<path d="M6.64642 10.8535C6.84168 11.0488 7.15826 11.0488 7.35352 10.8535L10.8535 7.35354C11.0488 7.15828 11.0488 6.8417 10.8535 6.64644C10.6583 6.45117 10.3417 6.45117 10.1464 6.64644L6.99997 9.79288L5.85352 8.64644C5.65826 8.45117 5.34168 8.45117 5.14642 8.64644C4.95115 8.8417 4.95115 9.15828 5.14642 9.35354L6.64642 10.8535Z" fill="white"/>
</svg>
