<svg width="16" height="16" viewBox="0 0 16 16" fill="none" xmlns="http://www.w3.org/2000/svg">
<path fill-rule="evenodd" clip-rule="evenodd" d="M7.84168 13.9398C7.59843 14.0283 7.33036 14.0189 7.09384 13.9138L2.59386 11.9138C2.23273 11.7533 2 11.3952 2 11V4.99999C2 4.57946 2.26309 4.20387 2.65831 4.06018L8.14901 2.0639C8.39226 1.97546 8.66032 1.98478 8.89684 2.0899L13.4061 4.09403C13.7673 4.25453 14 4.61265 14 5.00784V10.5C14 9.84689 13.5826 9.29127 13 9.08535V5.66037L12 6.02395V8.02396C12 8.57113 11.5523 9.18678 11 9.38754L10 9.75111C9.4477 9.95113 9 9.66343 9 9.11469V7.11468L8 7.47824V12.8182L9.00068 12.4544C9.00023 12.4695 9 12.4847 9 12.5C9 12.8411 9.11384 13.1556 9.30559 13.4075L7.84168 13.9398ZM3 5.69028L7 7.46806V12.7778L3 11V5.69028ZM3.50002 4.8182L7.50002 6.59597L8.4907 6.23579L4.5 4.45464L3.50002 4.8182ZM12.4907 4.78149L8.4907 3.00371L7.49535 3.3656L11.5026 5.14075L12.4907 4.78149ZM10 6.7511V8.75111L11 8.38754V6.38753C11 5.99234 10.7673 5.63422 10.4061 5.47372L6.5 3.72748L5.5 4.09106L9.4061 5.83729C9.7673 5.99779 10 6.35591 10 6.7511Z" fill="white"/>
<path d="M13 10.5C13 10.2239 12.7761 10 12.5 10C12.2239 10 12 10.2239 12 10.5V12H10.5C10.2239 12 10 12.2239 10 12.5C10 12.7761 10.2239 13 10.5 13H12V14.5C12 14.7761 12.2239 15 12.5 15C12.7761 15 13 14.7761 13 14.5V13H14.5C14.7761 13 15 12.7761 15 12.5C15 12.2239 14.7761 12 14.5 12H13V10.5Z" fill="white"/>
</svg>
