<svg width="16" height="16" viewBox="0 0 16 16" fill="none" xmlns="http://www.w3.org/2000/svg">
<path fill-rule="evenodd" clip-rule="evenodd" d="M5 3C5 1.89543 5.89543 1 7 1H9C10.1046 1 11 1.89543 11 3H12C12.5523 3 13 3.44772 13 4V13C13 13.5523 12.5523 14 12 14H4C3.44772 14 3 13.5523 3 13V4C3 3.44772 3.44772 3 4 3H5ZM12 13L4.00004 13V4L5.00004 4C5.00004 4.55229 5.44772 5 6 5H10C10.5523 5 11 4.55229 11 4L12 4V13ZM6.00004 3C6.00004 2.44772 6.44776 2 7.00004 2H9.00004C9.55233 2 10 2.44772 10 3V4H6.00004V3Z" fill="white"/>
</svg>
