<svg width="16" height="16" viewBox="0 0 16 16" fill="none" xmlns="http://www.w3.org/2000/svg">
<path fill-rule="evenodd" clip-rule="evenodd" d="M8.70711 12.7071L11.7071 9.70711C12.0976 9.31658 12.0976 8.68342 11.7071 8.29289C11.5119 8.09764 11.2559 8.00001 11 8H10V4C10 3.44771 9.55231 3 9.00003 3H7.00003C6.44774 3 6.00003 3.44771 6.00003 4L5.99998 7.99999L4.99999 8C4.74407 8.00001 4.48816 8.09764 4.29291 8.29289C3.90238 8.68342 3.90238 9.31658 4.29291 9.70711L7.2929 12.7071C7.68342 13.0976 8.31659 13.0976 8.70711 12.7071ZM9.00003 4L8.99998 8.99999H11L7.99998 12L4.99999 8.99999L6.99998 8.99999L6.99998 3.99999L9.00003 4Z" fill="white"/>
</svg>
