<svg width="16" height="16" viewBox="0 0 16 16" fill="none" xmlns="http://www.w3.org/2000/svg">
<path d="M2 12C2 10.8954 2.89543 10 4 10H10C11.1046 10 12 10.8954 12 12V13L11 13V12C11 11.4477 10.5523 11 10 11H4.00004C3.44776 11 3.00004 11.4477 3.00004 12L3.00004 13L2 13V12Z" fill="white"/>
<path fill-rule="evenodd" clip-rule="evenodd" d="M8 9H6C4.89543 9 4 8.10457 4 7V5C4 3.89543 4.89543 3 6 3H8C9.10457 3 10 3.89543 10 5L10 7C10 8.10457 9.10457 9 8 9ZM5.00004 5C5.00004 4.44772 5.44776 4 6.00004 4H8C8.55228 4 9 4.44772 9 5V7C9 7.55228 8.55228 8 8 8H6.00004C5.44776 8 5.00004 7.55228 5.00004 7L5.00004 5Z" fill="white"/>
<path d="M13 7L13 5C13 3.89543 12.1046 3 11 3H10.2361C10.4944 3.28855 10.6976 3.62738 10.8293 4H11C11.5523 4 12 4.44772 12 5V7C12 7.55228 11.5523 8 11 8H10.8293C10.6976 8.37262 10.4944 8.71145 10.2361 9H11C12.1046 9 13 8.10457 13 7Z" fill="white"/>
<path d="M13 10C14.1046 10 15 10.8954 15 12V13L14 13V12C14 11.4477 13.5523 11 13 11H12.8293C12.6976 10.6274 12.4944 10.2885 12.2361 10H13Z" fill="white"/>
</svg>
