<svg width="16" height="16" viewBox="0 0 16 16" fill="none" xmlns="http://www.w3.org/2000/svg">
<path fill-rule="evenodd" clip-rule="evenodd" d="M7 11C4.79086 11 3 9.20914 3 7C3 4.79086 4.79086 3 7 3C9.20914 3 11 4.79086 11 7C11 7.92436 10.6865 8.77549 10.1599 9.45283L12.8536 12.1464C13.0488 12.3417 13.0488 12.6583 12.8536 12.8535C12.6583 13.0488 12.3417 13.0488 12.1465 12.8535L9.45281 10.1599C8.77547 10.6865 7.92435 11 7 11ZM7 10C8.65685 10 10 8.65685 10 7C10 5.34315 8.65685 4 7 4C5.34315 4 4 5.34315 4 7C4 8.65685 5.34315 10 7 10Z" fill="white"/>
</svg>
