<svg width="16" height="16" viewBox="0 0 16 16" fill="none" xmlns="http://www.w3.org/2000/svg">
<path fill-rule="evenodd" clip-rule="evenodd" d="M7.29289 11.7071L4.29289 8.70711C3.90237 8.31658 3.90237 7.68342 4.29289 7.29289C4.48815 7.09764 4.74406 7.00001 4.99998 7H5.99997V3C5.99997 2.44772 6.44769 2 6.99997 2H8.99997C9.55226 2 9.99997 2.44772 9.99997 3L10 6.99999L11 7C11.2559 7.00001 11.5118 7.09764 11.7071 7.29289C12.0976 7.68342 12.0976 8.31658 11.7071 8.70711L8.7071 11.7071C8.31658 12.0976 7.68341 12.0976 7.29289 11.7071ZM6.99997 3L7.00002 7.99999H5.00002L8.00002 11L11 7.99999H9.00002V2.99999L6.99997 3Z" fill="white"/>
<path d="M14 13C14 13.5523 13.5523 14 13 14H3C2.44771 14 2 13.5523 2 13V11.5C2 11.2239 2.22386 11 2.5 11C2.77614 11 3 11.2239 3 11.5V13L13 13V11.5C13 11.2239 13.2239 11 13.5 11C13.7761 11 14 11.2239 14 11.5L14 13Z" fill="white"/>
</svg>
