<svg width="16" height="16" viewBox="0 0 16 16" fill="none" xmlns="http://www.w3.org/2000/svg">
<path d="M3 12C3 10.8954 3.89543 10 5 10H11C12.1046 10 13 10.8954 13 12V13L12 13V12C12 11.4477 11.5523 11 11 11H5.00004C4.44776 11 4.00004 11.4477 4.00004 12L4.00004 13L3 13V12Z" fill="white"/>
<path fill-rule="evenodd" clip-rule="evenodd" d="M9 9H7C5.89543 9 5 8.10457 5 7V5C5 3.89543 5.89543 3 7 3H9C10.1046 3 11 3.89543 11 5L11 7C11 8.10457 10.1046 9 9 9ZM6.00004 5C6.00004 4.44772 6.44776 4 7.00004 4H9C9.55228 4 10 4.44772 10 5V7C10 7.55228 9.55228 8 9 8H7.00004C6.44776 8 6.00004 7.55228 6.00004 7L6.00004 5Z" fill="white"/>
</svg>
