<svg width="16" height="16" viewBox="0 0 16 16" fill="none" xmlns="http://www.w3.org/2000/svg">
<path fill-rule="evenodd" clip-rule="evenodd" d="M2 5C2 3.89543 2.89543 3 4 3H12C13.1046 3 14 3.89543 14 5V10C14 11.1046 13.1046 12 12 12H5.41415L3.70711 13.707C3.31658 14.0976 2.68342 14.0976 2.29289 13.707C2.09764 13.5118 2.00001 13.2559 2 13L2 5ZM12 4C12.5523 4 13 4.44772 13 5L13 10C13 10.5523 12.5522 11 12 11H5L2.99999 12.9999L3.00004 5C3.00004 4.44772 3.44776 4 4.00004 4H12Z" fill="white"/>
<path d="M6 8C6 8.55228 5.55228 9 5 9C4.44772 9 4 8.55228 4 8C4 7.44772 4.44772 7 5 7C5.55228 7 6 7.44772 6 8Z" fill="white"/>
<path d="M9 8C9 8.55228 8.55228 9 8 9C7.44772 9 7 8.55228 7 8C7 7.44772 7.44772 7 8 7C8.55228 7 9 7.44772 9 8Z" fill="white"/>
<path d="M12 8C12 8.55228 11.5523 9 11 9C10.4477 9 10 8.55228 10 8C10 7.44772 10.4477 7 11 7C11.5523 7 12 7.44772 12 8Z" fill="white"/>
</svg>
