<svg width="16" height="16" viewBox="0 0 16 16" fill="none" xmlns="http://www.w3.org/2000/svg">
<path fill-rule="evenodd" clip-rule="evenodd" d="M8 13C5.23858 13 3 10.7614 3 8C3 5.23858 5.23858 3 8 3C10.7614 3 13 5.23858 13 8C13 10.7614 10.7614 13 8 13ZM4 8C4 10.2091 5.79086 12 8 12C8.92434 12 9.77546 11.6865 10.4528 11.1599L4.84005 5.5472C4.31353 6.22454 4 7.07566 4 8ZM12 8C12 5.79086 10.2091 4 8 4C7.07563 4 6.2245 4.31355 5.54715 4.84009L11.1599 10.4528C11.6865 9.7755 12 8.92437 12 8Z" fill="white"/>
</svg>
