<svg width="16" height="16" viewBox="0 0 16 16" fill="none" xmlns="http://www.w3.org/2000/svg">
<path fill-rule="evenodd" clip-rule="evenodd" d="M7.84168 13.9398C7.59843 14.0283 7.33036 14.0189 7.09384 13.9138L2.59386 11.9138C2.23273 11.7533 2 11.3952 2 11V5C2 4.57947 2.26309 4.20388 2.65831 4.06019L8.14901 2.06391C8.39226 1.97547 8.66032 1.98479 8.89684 2.08991L13.4061 4.09404C13.7673 4.25454 14 4.61266 14 5.00785V11.0003C14 11.4209 13.7369 11.7965 13.3417 11.9401L7.84168 13.9398ZM3 5.69029L7 7.46807V12.7778L3 11V5.69029ZM3.50002 4.81821L7.50002 6.59598L12.4907 4.7815L8.4907 3.00372L3.50002 4.81821ZM8 12.8182V7.47825L13 5.66038V11.0003L8 12.8182Z" fill="white"/>
</svg>
