<svg width="16" height="16" viewBox="0 0 16 16" fill="none" xmlns="http://www.w3.org/2000/svg">
<path fill-rule="evenodd" clip-rule="evenodd" d="M6.29292 7.29286C5.9024 7.68339 5.9024 8.31655 6.29292 8.70708L7.29295 9.70708C7.68348 10.0976 8.31664 10.0976 8.70717 9.70708L9.70714 8.70708C10.0977 8.31655 10.0977 7.68339 9.70714 7.29286L8.70717 6.29286C8.31664 5.90234 7.68348 5.90234 7.29295 6.29286L6.29292 7.29286ZM8.00006 6.99997L7.00003 7.99997L8.00006 8.99997L9.00003 7.99997L8.00006 6.99997Z" fill="white"/>
<path fill-rule="evenodd" clip-rule="evenodd" d="M8.70717 13.7071C8.31664 14.0976 7.68348 14.0976 7.29295 13.7071L2.29292 8.70708C1.9024 8.31655 1.9024 7.68339 2.29292 7.29286L7.29295 2.29286C7.68348 1.90234 8.31664 1.90234 8.70717 2.29286L13.7071 7.29286C14.0977 7.68339 14.0977 8.31655 13.7071 8.70708L8.70717 13.7071ZM3.00003 7.99997L8.00006 13L13 7.99997L8.00006 2.99997L3.00003 7.99997Z" fill="white"/>
</svg>
