<svg width="16" height="16" viewBox="0 0 16 16" fill="none" xmlns="http://www.w3.org/2000/svg">
<path d="M14 13C14 13.5523 13.5523 14 13 14H3C2.44771 14 2 13.5523 2 13V11.5C2 11.2239 2.22386 11 2.5 11C2.77614 11 3 11.2239 3 11.5V13L13 13V11.5C13 11.2239 13.2239 11 13.5 11C13.7761 11 14 11.2239 14 11.5L14 13Z" fill="white"/>
<path fill-rule="evenodd" clip-rule="evenodd" d="M8.70711 2.2929L11.7071 5.29289C12.0976 5.68342 12.0976 6.31658 11.7071 6.70711C11.5119 6.90236 11.2559 6.99999 11 7H10V11C10 11.5523 9.55231 12 9.00003 12H7.00003C6.44774 12 6.00003 11.5523 6.00003 11L5.99998 7.00001L4.99999 7C4.74407 6.99999 4.48816 6.90236 4.29291 6.70711C3.90238 6.31658 3.90238 5.68342 4.29291 5.29289L7.2929 2.2929C7.68342 1.90237 8.31659 1.90237 8.70711 2.2929ZM9.00003 11L8.99998 6.00001H11L7.99998 3.00002L4.99999 6.00001H6.99998V11L9.00003 11Z" fill="white"/>
</svg>
