<svg width="16" height="16" viewBox="0 0 16 16" fill="none" xmlns="http://www.w3.org/2000/svg">
<path fill-rule="evenodd" clip-rule="evenodd" d="M2.29289 7.29292C1.90237 7.68344 1.90237 8.31661 2.29289 8.70713L3.79289 10.2071C4.18342 10.5976 4.81658 10.5976 5.20711 10.2071L6.70711 8.70713C7.09763 8.31661 7.09763 7.68344 6.70711 7.29292L5.20711 5.79289C4.81658 5.40237 4.18342 5.40237 3.79289 5.79289L2.29289 7.29292ZM4.5 6.5L3 8.00003L4.5 9.5L6 8.00003L4.5 6.5Z" fill="white"/>
<path fill-rule="evenodd" clip-rule="evenodd" d="M9.29289 7.29292C8.90237 7.68344 8.90237 8.31661 9.29289 8.70713L10.7929 10.2071C11.1834 10.5976 11.8166 10.5976 12.2071 10.2071L13.7071 8.70713C14.0976 8.31661 14.0976 7.68344 13.7071 7.29292L12.2071 5.79289C11.8166 5.40237 11.1834 5.40237 10.7929 5.79289L9.29289 7.29292ZM11.5 6.5L10 8.00003L11.5 9.5L13 8.00003L11.5 6.5Z" fill="white"/>
<path fill-rule="evenodd" clip-rule="evenodd" d="M5.79289 3.79289C5.40237 4.18342 5.40237 4.81658 5.79289 5.20711L7.29289 6.70708C7.68342 7.0976 8.31658 7.0976 8.70711 6.70708L10.2071 5.20711C10.5976 4.81658 10.5976 4.18342 10.2071 3.79289L8.70711 2.29286C8.31658 1.90234 7.68342 1.90234 7.29289 2.29286L5.79289 3.79289ZM8 2.99997L6.5 4.5L8 5.99997L9.5 4.5L8 2.99997Z" fill="white"/>
<path fill-rule="evenodd" clip-rule="evenodd" d="M5.79289 10.7929C5.40237 11.1834 5.40237 11.8166 5.79289 12.2071L7.29289 13.7071C7.68342 14.0976 8.31658 14.0976 8.70711 13.7071L10.2071 12.2071C10.5976 11.8166 10.5976 11.1834 10.2071 10.7929L8.70711 9.29286C8.31658 8.90234 7.68342 8.90234 7.29289 9.29286L5.79289 10.7929ZM8 9.99997L6.5 11.5L8 13L9.5 11.5L8 9.99997Z" fill="white"/>
</svg>
