<svg width="16" height="16" viewBox="0 0 16 16" fill="none" xmlns="http://www.w3.org/2000/svg">
<path fill-rule="evenodd" clip-rule="evenodd" d="M5 3C3.89543 3 3 3.89543 3 5V11C3 12.1046 3.89543 13 5 13H11C12.1046 13 13 12.1046 13 11V6.5C13 5.94772 12.7761 5.44772 12.4142 5.08579L10.9142 3.58579C10.5522 3.22386 10.0522 3 9.49996 3L5 3ZM9 9C9.55228 9 10 9.44772 10 10V12H6.00004V10C6.00004 9.44772 6.44776 9 7.00004 9H9ZM6 4V6H9V4H6ZM4.00004 5L3.99996 11C3.99996 11.5523 4.44767 12 4.99996 12L5 10C5 8.89543 5.89543 8 7 8H9.00004C10.1046 8 11 8.89543 11 10L11 12C11.5522 12 12 11.5523 12 11L12 6.5C12 6.22385 11.8881 5.97384 11.7071 5.79287L10.2071 4.29287C10.1455 4.23128 10.0759 4.17769 10 4.13378V6C10 6.55228 9.55228 7 9 7H6C5.44772 7 5 6.55228 5 6L5.00004 4C4.44778 4.00002 4.00004 4.44773 4.00004 5Z" fill="white"/>
</svg>
