<svg width="16" height="16" viewBox="0 0 16 16" fill="none" xmlns="http://www.w3.org/2000/svg">
<path d="M8 15C7.25972 15 6.61337 14.5978 6.26756 14H9.73244C9.38663 14.5978 8.74028 15 8 15Z" fill="white"/>
<path fill-rule="evenodd" clip-rule="evenodd" d="M2 11C2 9.89543 2.89543 9 4 9V7C4 5.13616 5.27477 3.57006 7 3.12602V3C7 2.44772 7.44772 2 8 2C8.55228 2 9 2.44772 9 3V3.12602C10.7252 3.57006 12 5.13616 12 7V9C13.1046 9 14 9.89543 14 11L14 12C14 12.5523 13.5523 13 13 13H3C2.44772 13 2.00004 12.5523 2.00004 12L2 11ZM3.00004 11C3.00004 10.4477 3.44776 10 4.00004 10C4.55233 10 5 9.55228 5 9V7C5 5.34315 6.34315 4 8 4C9.65685 4 11 5.34315 11 7V9C11 9.55228 11.4478 10 12 10C12.5523 10 13 10.4477 13 11V12H3.00004V11Z" fill="white"/>
</svg>
