<svg width="16" height="16" viewBox="0 0 16 16" fill="none" xmlns="http://www.w3.org/2000/svg">
<path fill-rule="evenodd" clip-rule="evenodd" d="M12.7071 8.70711L9.70711 11.7071C9.31658 12.0976 8.68342 12.0976 8.29289 11.7071C8.09764 11.5119 8.00001 11.2559 8 11V10L4 10C3.44772 10 3 9.55231 3 9.00003L3 7.00003C3 6.44774 3.44772 6.00003 4 6.00003L7.99999 5.99998L8 4.99999C8.00001 4.74407 8.09764 4.48816 8.2929 4.29291C8.68342 3.90238 9.31658 3.90238 9.70711 4.29291L12.7071 7.2929C13.0976 7.68342 13.0976 8.31659 12.7071 8.70711ZM4 9.00003L8.99999 8.99998L8.99999 11L12 7.99998L8.99999 4.99999L8.99999 6.99998L3.99999 6.99998L4 9.00003Z" fill="white"/>
</svg>
