<svg width="16" height="16" viewBox="0 0 16 16" fill="none" xmlns="http://www.w3.org/2000/svg">
<path fill-rule="evenodd" clip-rule="evenodd" d="M1.29286 7.29288L7.29286 1.29288C7.68338 0.90236 8.31655 0.90236 8.70707 1.29288L14.7071 7.29288C15.0976 7.6834 15.0976 8.31657 14.7071 8.70709C14.5118 8.90235 14.2559 8.99998 14 8.99998L13 9L12.9999 13C12.9999 13.5523 12.5522 14 11.9999 14H3.99994C3.44766 14 2.99994 13.5523 2.99994 13V8.99999H1.99995C1.74403 8.99998 1.48812 8.90235 1.29286 8.70709C0.902339 8.31657 0.902338 7.6834 1.29286 7.29288ZM6.99999 10L6.99999 13H8.99999L8.99994 9.99998L6.99999 10ZM3.99994 13L3.99999 8H1.99999L7.99999 2.00001L14 8H12V13L9.99999 13L9.99994 9.99998C9.99994 9.44772 9.5522 9.00001 8.99994 8.99998L6.99999 9C6.4477 9 5.99999 9.44772 5.99999 10L5.99999 13L3.99994 13Z" fill="white"/>
</svg>
