<svg width="16" height="16" viewBox="0 0 16 16" fill="none" xmlns="http://www.w3.org/2000/svg">
<path fill-rule="evenodd" clip-rule="evenodd" d="M8.70711 3.29289L11.7071 6.29289C12.0976 6.68341 12.0976 7.31658 11.7071 7.7071C11.5119 7.90236 11.2559 7.99999 11 7.99999H10V12C10 12.5523 9.55231 13 9.00003 13H7.00003C6.44774 13 6.00003 12.5523 6.00003 12L5.99998 8.00001L4.99999 7.99999C4.74407 7.99999 4.48816 7.90236 4.29291 7.7071C3.90238 7.31658 3.90238 6.68341 4.29291 6.29289L7.2929 3.29289C7.68342 2.90237 8.31659 2.90237 8.70711 3.29289ZM9.00003 12L8.99998 7.00001H11L7.99998 4.00001L4.99999 7.00001L6.99998 7.00001L6.99998 12L9.00003 12Z" fill="white"/>
</svg>
