<svg width="16" height="16" viewBox="0 0 16 16" fill="none" xmlns="http://www.w3.org/2000/svg">
<path fill-rule="evenodd" clip-rule="evenodd" d="M3.29289 7.2929L6.29289 4.29291C6.68341 3.90238 7.31658 3.90238 7.7071 4.29291C7.90236 4.48816 7.99999 4.74407 7.99999 4.99999V5.99998H12C12.5523 5.99998 13 6.4477 13 6.99998V8.99998C13 9.55227 12.5523 9.99998 12 9.99998L8.00001 10L7.99999 11C7.99999 11.2559 7.90236 11.5119 7.7071 11.7071C7.31658 12.0976 6.68341 12.0976 6.29289 11.7071L3.29289 8.70711C2.90237 8.31659 2.90237 7.68343 3.29289 7.2929ZM12 6.99998L7.00001 7.00003V5.00004L4.00001 8.00003L7.00001 11V9.00003H12L12 6.99998Z" fill="white"/>
</svg>
