<svg width="16" height="16" viewBox="0 0 16 16" fill="none" xmlns="http://www.w3.org/2000/svg">
<path d="M7 9C7 8.44772 7.44772 8 8 8C8.55228 8 9 8.44772 9 9C9 9.37014 8.7989 9.69331 8.5 9.86622V10.5C8.5 10.7761 8.27614 11 8 11C7.72386 11 7.5 10.7761 7.5 10.5V9.86622C7.2011 9.69331 7 9.37014 7 9Z" fill="white"/>
<path fill-rule="evenodd" clip-rule="evenodd" d="M4 13H12C12.5523 13 13 12.5523 13 12L13 7C13 6.44772 12.5523 6 12 6H11V5C11 3.89543 10.1046 3 9 3H7C5.89543 3 5 3.89543 5 5V6H4C3.44772 6 3 6.44772 3 7V12C3 12.5523 3.44772 13 4 13ZM4.00004 12L4.00004 7H12V12H4.00004ZM6 6V5C6 4.44772 6.44772 4 7 4H9C9.55228 4 10 4.44772 10 5V6H6Z" fill="white"/>
</svg>
